<?xml version="1.0" encoding="UTF-8"?>
<!DOCTYPE svg PUBLIC "-//W3C//DTD SVG 1.1//EN" "http://www.w3.org/Graphics/SVG/1.1/DTD/svg11.dtd">
<!-- Creator: CorelDRAW X8 -->
<svg xmlns="http://www.w3.org/2000/svg" xml:space="preserve" width="445px" height="180px" version="1.1" style="shape-rendering:geometricPrecision; text-rendering:geometricPrecision; image-rendering:optimizeQuality; fill-rule:evenodd; clip-rule:evenodd"
viewBox="0 0 445 180"
 xmlns:xlink="http://www.w3.org/1999/xlink">
 <defs>
  <style type="text/css">
   <![CDATA[
    .fil1 {fill:#FEFEFE;fill-rule:nonzero}
    .fil0 {fill:#49619B;fill-rule:nonzero}
   ]]>
  </style>
 </defs>
 <g id="Camada_x0020_1">
  <metadata id="CorelCorpID_0Corel-Layer"/>
  <g id="_2574638696144">
   <polygon class="fil0" points="-5,175 450,175 450,5 -5,5 "/>
   <path class="fil1" d="M243 108c0,5 -4,7 -8,7 -1,0 -2,0 -3,-1 -4,-2 -5,-5 -5,-7 0,0 0,0 0,0 0,-4 -1,-11 1,-14 1,-2 4,-4 7,-4 4,0 8,2 8,7 1,4 1,8 0,12zm-2 -30c-5,-1 -10,1 -14,6l0 -31 -15 2 0 70 15 0 0 -4c2,2 4,3 6,4 8,3 20,1 24,-11 2,-7 2,-15 0,-22 -2,-9 -7,-13 -16,-14z"/>
   <path class="fil1" d="M295 107c0,1 -1,1 -1,1 -1,5 -4,7 -8,7 -5,0 -8,-3 -8,-8 -1,-3 -1,-6 0,-10 0,-5 3,-8 8,-8 4,0 7,3 8,7 1,3 1,10 1,11zm-1 -28c-5,-2 -10,-2 -16,0 -7,2 -13,7 -14,14 -1,5 -1,9 -1,13 0,10 7,17 16,20 0,0 0,0 1,0l0 0c0,0 0,0 0,0 0,0 0,0 1,0 0,0 0,0 0,0 0,0 0,0 0,0 1,0 1,0 2,0 2,0 4,1 6,0 0,0 0,0 0,0 0,0 0,0 0,0 10,0 18,-6 20,-16 1,-5 1,-10 0,-16 -2,-8 -7,-13 -15,-15z"/>
   <path class="fil1" d="M70 78l-10 0 0 -7c1,-6 12,-5 12,-5l0 -1 0 0 0 -11 0 0 0 0 0 0c-1,0 -22,-5 -27,12 0,0 0,0 0,0 0,0 0,0 0,0 0,2 0,11 0,12l-10 0 0 13 10 0 0 34 14 0 0 -34 11 0 2 -13 -2 0z"/>
   <path class="fil1" d="M103 108c0,4 -4,7 -8,7 -4,0 -7,-3 -8,-7 -1,-6 0,-12 0,-13 1,-4 4,-6 8,-6 4,0 8,3 8,7 1,4 1,8 0,12zm1 -24c0,0 0,0 0,0l0 0c0,0 0,0 0,0 0,0 -1,-1 -1,-1l0 0c-3,-3 -4,-4 -7,-5 -10,-3 -20,3 -23,13 -2,6 -2,12 -1,19 3,14 13,18 24,16 3,-1 6,-3 8,-6 0,0 0,0 0,-1l0 6 14 0 0 -47 -14 0 0 6 0 0z"/>
   <path class="fil1" d="M161 122c-1,-2 -2,-5 -2,-7l-1 -2c0,0 -17,8 -20,-8 0,-2 0,-5 0,-8 1,-5 4,-7 8,-8 2,0 4,0 5,0 2,1 5,1 7,2 1,-2 2,-5 2,-7 0,-1 1,-1 1,-1l0 0 0 -2c0,0 0,0 -1,-1 0,0 0,0 0,0 0,0 -1,0 -2,-1 0,0 -1,0 -1,0 0,0 -1,0 -1,0l0 0c-4,-2 -9,-2 -14,-1 -10,1 -17,7 -19,17 -1,5 0,10 1,15 1,8 6,13 14,15 5,2 10,2 15,1 2,0 5,-1 7,-2l1 -1 0 -1 0 0z"/>
   <path class="fil1" d="M193 97l-16 0c0,-3 1,-6 3,-8 3,-2 7,-2 10,0 3,2 3,5 3,8zm14 7c-1,-4 0,-7 -1,-10 -1,-9 -7,-14 -15,-16 -4,0 -7,0 -10,0 -10,1 -17,7 -18,15 -1,5 -1,11 0,16 1,8 5,13 11,16 0,0 0,0 0,0 0,0 0,0 0,0 0,0 0,0 0,0 3,0 18,4 31,-2l0 -2c0,0 0,0 0,0 -1,-3 -1,-5 -2,-8l0 0c0,0 -1,0 -1,0 0,0 0,0 0,0 -1,0 -1,0 -2,1 0,0 0,0 0,0 -2,0 -5,1 -8,1 -2,1 -5,1 -7,0 -5,0 -8,-2 -8,-8l3 0c8,0 16,0 24,0 0,0 1,0 1,0l0 0c0,0 2,0 2,0 0,0 0,0 0,0l0 -3z"/>
   <polygon class="fil1" points="410,79 394,79 380,100 380,53 365,55 365,125 380,125 380,104 394,126 410,126 395,102 "/>
   <path class="fil1" d="M345 107c0,1 0,1 0,1 -1,5 -4,7 -8,7 -5,0 -8,-3 -8,-8 -1,-3 -1,-6 0,-10 0,-5 3,-8 8,-8 4,0 7,3 8,7 1,3 0,10 0,11zm0 -28c-5,-2 -11,-2 -16,0 -8,2 -13,7 -14,14 -1,5 -2,9 -1,13 0,10 6,17 16,20 0,0 0,0 0,0l0 0c0,0 0,0 0,0 1,0 1,0 2,0 0,0 0,0 0,0 0,0 0,0 0,0 0,0 1,0 2,0 1,0 4,1 6,0 0,0 0,0 0,0 0,0 0,0 0,0 10,0 17,-6 20,-16 1,-5 1,-10 0,-16 -2,-8 -7,-13 -15,-15z"/>
  </g>
 </g>
</svg>
