<?xml version="1.0" encoding="UTF-8"?>
<!DOCTYPE svg PUBLIC "-//W3C//DTD SVG 1.1//EN" "http://www.w3.org/Graphics/SVG/1.1/DTD/svg11.dtd">
<!-- Creator: CorelDRAW X8 -->
<svg xmlns="http://www.w3.org/2000/svg" xml:space="preserve" width="2480px" height="1004px" version="1.1" style="shape-rendering:geometricPrecision; text-rendering:geometricPrecision; image-rendering:optimizeQuality; fill-rule:evenodd; clip-rule:evenodd"
viewBox="0 0 2480 1004"
 xmlns:xlink="http://www.w3.org/1999/xlink">
 <defs>
  <style type="text/css">
   <![CDATA[
    .fil0 {fill:#040404}
   ]]>
  </style>
 </defs>
 <g id="Camada_x0020_1">
  <metadata id="CorelCorpID_0Corel-Layer"/>
  <g id="_1279925200704">
   <path class="fil0" d="M160 160c8,-2 14,-1 22,1 10,2 20,6 29,12 4,3 9,9 8,14 0,100 0,199 0,299 0,33 2,65 -5,98 -4,26 -14,52 -32,72 -7,6 -14,13 -22,17 -8,4 -15,8 -23,7 -2,-3 -3,-5 -3,-7 1,-7 3,-15 6,-23 8,-25 10,-51 10,-77 1,-121 1,-242 2,-364 0,-2 0,-5 -1,-9 -4,0 -7,4 -11,7 -14,14 -26,31 -34,50 -12,24 -18,49 -20,75 -2,17 -1,35 3,51 4,13 9,25 18,36 3,4 4,11 1,15 -4,4 -11,2 -16,0 -18,-5 -33,-17 -44,-33 -14,-17 -21,-39 -21,-62 2,-18 7,-38 15,-55 9,-27 25,-52 44,-73 12,-13 26,-25 41,-36 10,-6 21,-12 33,-15l0 0zm659 4l0 0c5,-4 13,-4 20,-3 12,2 24,6 36,11 3,1 7,3 10,7 -1,27 -2,54 -3,81 27,1 54,2 81,4 5,0 11,2 12,7 1,9 0,17 -4,25 -2,4 -6,9 -11,9 -26,0 -53,1 -79,1 -1,39 -3,77 -5,115 0,35 -3,70 0,104 3,13 4,27 10,39 3,6 8,10 14,11 8,1 15,-2 22,-7 9,-8 15,-19 21,-30 6,-13 12,-26 16,-39 1,-6 0,-12 0,-18 1,-32 5,-64 16,-94 9,-21 21,-43 39,-58 20,-17 49,-22 74,-12 16,6 29,18 36,33 1,-7 0,-15 2,-21 6,-7 14,-8 22,-7 10,1 21,3 29,9 6,3 11,7 11,14 -2,59 -4,117 -2,175 0,13 2,25 4,38 3,9 6,18 14,24 6,5 17,4 23,-1 10,-9 17,-21 22,-33 1,-3 3,-7 2,-11 -3,-35 -4,-70 1,-105 5,-24 11,-47 24,-68 12,-20 30,-39 51,-48 5,-3 9,-5 15,-5 21,-1 43,7 59,23 4,4 8,9 10,14 2,-6 0,-14 2,-21 5,-6 13,-7 21,-6 12,2 24,4 35,11 6,3 6,12 5,18 0,67 -1,132 -1,197 14,-21 28,-42 39,-65 15,-28 27,-58 33,-88 -8,-8 -15,-17 -18,-28 -2,-9 0,-18 3,-27 4,-13 14,-25 27,-29 10,-3 21,-3 31,2 8,5 12,12 13,20 1,9 0,16 -2,24 18,-2 36,-6 53,-10 11,-2 24,-4 36,-1 9,2 14,11 17,18 2,10 3,20 0,29 -5,10 -6,24 -9,35 -6,33 -13,66 -8,98 2,14 6,30 11,43 3,7 9,15 16,18 8,2 17,-2 23,-7 10,-9 17,-22 20,-35 -7,-35 -9,-70 -3,-105 4,-26 12,-52 25,-75 9,-17 22,-33 41,-42 21,-11 46,-11 66,1 12,7 22,16 28,28 2,-6 0,-14 4,-20 5,-8 16,-7 24,-6 12,2 25,5 33,14 6,6 2,15 2,22 -1,38 -2,76 -2,114 0,30 -1,60 7,88 2,8 5,16 12,20 7,5 17,4 24,-1 9,-8 15,-18 20,-27 5,-10 10,-19 12,-29 0,-64 1,-128 1,-192 -1,-7 1,-12 7,-14 4,-3 9,-1 13,-1 11,2 23,3 34,8 4,2 8,6 7,10 0,32 0,64 0,96 0,3 0,8 1,11 9,-30 19,-58 31,-86 4,-11 8,-22 14,-32 4,-7 14,-8 23,-8 17,1 36,8 44,25 4,5 5,12 5,18 0,33 2,66 4,99 1,10 1,21 2,31 1,0 2,-2 2,-4 4,-24 10,-48 17,-71 7,-27 16,-53 27,-78 3,-6 5,-13 12,-16 10,-5 20,-4 30,-1 11,3 22,8 31,15 6,6 12,13 12,22 -3,51 -5,103 -1,154 1,14 3,29 6,42 2,8 4,16 10,22 4,6 13,9 20,7 7,-3 11,-9 15,-15 7,-14 9,-31 14,-46 1,-4 3,-10 8,-11 4,-2 7,0 10,2 3,4 2,9 2,13 -1,25 -4,51 -19,72 -11,18 -33,28 -53,26 -19,-1 -37,-12 -47,-28 -13,-20 -19,-44 -22,-66 -6,-47 -4,-93 -3,-139 -2,1 -3,3 -5,5 -13,25 -21,53 -28,81 -8,36 -15,73 -16,111 0,5 -3,8 -8,9 -11,4 -23,5 -32,1 -11,-5 -19,-15 -23,-25 -4,-11 -7,-22 -9,-34 -5,-47 -7,-95 -10,-143 0,-3 -4,-1 -5,-1 -24,41 -36,87 -41,132 -5,28 -6,55 -6,82 0,4 -3,10 -7,12 -8,4 -18,4 -26,3 -11,-1 -22,-2 -31,-7 -4,-4 -6,-7 -6,-12 -2,-9 -2,-18 -3,-26 -4,7 -8,15 -14,20 -10,11 -21,21 -36,24 -19,4 -41,-2 -55,-17 -11,-12 -17,-29 -21,-45 -9,22 -26,41 -48,53 -9,6 -21,9 -33,10 -13,1 -26,0 -38,-6 -18,-9 -31,-24 -38,-42 -9,21 -25,41 -47,46 -23,7 -47,-2 -62,-18 -21,-20 -32,-48 -35,-77 -1,-13 -1,-27 0,-40 2,-30 6,-61 13,-90 0,-1 0,-3 0,-4 -16,-1 -32,0 -49,0 -7,27 -19,54 -32,79 -23,44 -51,84 -84,121 1,36 2,71 0,107 -1,30 -5,58 -17,84 -10,20 -24,38 -43,48 -15,7 -31,12 -48,13 -19,-1 -41,-7 -56,-20 -11,-9 -19,-23 -22,-37 -2,-12 -3,-25 1,-37 8,-22 22,-41 37,-58 17,-19 34,-34 51,-50 14,-13 27,-26 42,-38 0,-10 -1,-21 -1,-31 -7,9 -12,18 -21,24 -20,20 -48,29 -76,26 -19,-3 -35,-16 -46,-31 -4,-6 -9,-12 -12,-18 -10,20 -24,41 -47,47 -22,7 -47,-2 -62,-20 -9,-11 -16,-27 -18,-41 -9,20 -24,38 -42,50 -12,8 -26,12 -42,13 -15,1 -31,-2 -44,-11 -24,-16 -35,-44 -42,-71 -4,12 -9,24 -16,34 -6,9 -12,19 -20,28 -10,8 -23,16 -36,18 -17,2 -33,-2 -45,-13 -10,-9 -17,-20 -23,-32 -10,-20 -14,-44 -16,-68 -12,27 -26,54 -48,75 -16,17 -38,30 -61,36 -18,4 -37,4 -55,2 -16,-1 -33,-4 -47,-12 -6,-4 -14,-10 -16,-18 -1,-9 4,-17 8,-24 6,-6 10,-13 18,-16 7,-2 14,4 19,7 9,8 19,15 31,17 11,4 24,-1 30,-10 7,-9 8,-21 9,-32 0,-20 -13,-37 -27,-51 -13,-13 -26,-24 -39,-36 -20,32 -41,63 -59,96 -12,20 -26,40 -43,56 -12,11 -28,21 -45,23 -12,2 -24,-4 -30,-13 -9,-12 -14,-26 -16,-40 -3,-26 -2,-52 -2,-78 1,-34 2,-67 3,-100 0,-7 1,-15 1,-21 -3,0 -5,0 -6,2 -32,36 -52,80 -67,125 -13,39 -22,79 -29,121 -5,3 -12,4 -18,3 -8,-1 -15,0 -23,-1 -8,-2 -12,-8 -14,-14 -7,-13 -7,-27 -7,-42 1,-78 1,-156 3,-234 -2,-5 0,-9 4,-10 9,-3 16,-1 25,1 9,2 18,4 26,12 3,3 1,8 2,12 -1,43 -1,87 -1,130 14,-38 28,-77 51,-112 4,-7 9,-15 15,-20 11,-13 25,-24 43,-24 12,0 24,5 35,11 9,5 20,13 25,24 2,6 1,13 1,20 -1,37 -3,74 -4,112 -1,15 -2,31 -1,46 1,7 1,14 5,22 1,3 3,7 7,8 5,0 9,-2 11,-5 8,-7 13,-14 19,-21 15,-22 29,-45 42,-68 8,-14 16,-29 24,-44 -3,-4 -7,-7 -10,-12 -8,-14 -11,-31 -6,-48 4,-15 14,-29 27,-38 8,-6 19,-10 30,-13 10,-2 22,-1 31,5 6,4 9,11 9,18 0,13 -4,26 -11,38 -6,12 -14,22 -22,33 27,19 55,38 78,62 12,12 22,28 24,45 1,10 0,19 -1,29 25,-22 44,-52 50,-86 1,-51 0,-102 1,-153 -24,0 -47,0 -71,-2 -4,-2 -5,-8 -5,-13 0,-12 3,-23 11,-33 2,-1 4,-1 6,-1 21,0 41,1 62,1 1,-24 1,-48 2,-71 0,-8 0,-15 6,-21l0 0zm254 198l0 0c-14,2 -24,13 -30,25 -9,17 -12,34 -16,52 -3,23 -4,47 -2,70 1,18 3,37 12,53 5,9 11,18 21,21 6,2 14,2 20,-1 12,-7 21,-19 27,-31 12,-22 16,-46 18,-71 2,-26 3,-53 -3,-78 -3,-11 -9,-23 -18,-32 -7,-7 -19,-11 -29,-8l0 0zm291 1l0 0c-17,5 -28,19 -36,33 -10,23 -15,48 -16,73 -2,28 -2,56 7,83 4,14 12,27 25,32 7,4 17,3 25,-1 6,-4 12,-10 16,-16 10,-13 16,-31 20,-47 6,-25 8,-50 8,-75 -1,-18 -2,-36 -7,-52 -4,-10 -9,-20 -19,-26 -6,-6 -15,-7 -23,-4l0 0zm505 1l0 0c-14,4 -25,15 -32,27 -12,21 -15,47 -17,71 -2,29 -3,57 3,83 3,14 9,27 20,36 7,5 17,8 26,5 11,-3 19,-13 26,-23 14,-25 19,-53 23,-81 1,-25 2,-51 -5,-76 -3,-12 -8,-24 -17,-33 -8,-6 -18,-10 -27,-9l0 0zm-471 307l0 0c-25,25 -49,53 -63,86 -4,12 -8,25 -3,38 2,10 10,18 19,21 12,3 26,3 37,-4 10,-7 17,-17 21,-28 8,-22 9,-45 10,-67 1,-22 1,-44 1,-66 -8,6 -14,13 -22,20l0 0z"/>
  </g>
 </g>
</svg>
