<?xml version="1.0" encoding="UTF-8"?>
<!DOCTYPE svg PUBLIC "-//W3C//DTD SVG 1.1//EN" "http://www.w3.org/Graphics/SVG/1.1/DTD/svg11.dtd">
<!-- Creator: CorelDRAW X8 -->
<svg xmlns="http://www.w3.org/2000/svg" xml:space="preserve" width="7087px" height="2480px" version="1.1" style="shape-rendering:geometricPrecision; text-rendering:geometricPrecision; image-rendering:optimizeQuality; fill-rule:evenodd; clip-rule:evenodd"
viewBox="0 0 7087 2480"
 xmlns:xlink="http://www.w3.org/1999/xlink">
 <defs>
  <style type="text/css">
   <![CDATA[
    .fil0 {fill:#373435;fill-rule:nonzero}
    .fil5 {fill:#F8F8F8;fill-rule:nonzero}
    .fil6 {fill:#F9F8F8;fill-rule:nonzero}
    .fil1 {fill:url(#id0)}
    .fil3 {fill:url(#id1)}
    .fil2 {fill:url(#id2)}
    .fil4 {fill:url(#id3)}
   ]]>
  </style>
  <linearGradient id="id0" gradientUnits="userSpaceOnUse" x1="1083.99" y1="569.876" x2="1083.99" y2="2044.96">
   <stop offset="0" style="stop-opacity:1; stop-color:#3781B2"/>
   <stop offset="0.458824" style="stop-opacity:1; stop-color:#61A8B8"/>
   <stop offset="1" style="stop-opacity:1; stop-color:#8CD0BF"/>
  </linearGradient>
  <linearGradient id="id1" gradientUnits="userSpaceOnUse" x1="1184" y1="1307.42" x2="1184" y2="2051.21">
   <stop offset="0" style="stop-opacity:1; stop-color:#EC4B49"/>
   <stop offset="1" style="stop-opacity:1; stop-color:#8E55A0"/>
  </linearGradient>
  <linearGradient id="id2" gradientUnits="userSpaceOnUse" x1="712.096" y1="935.522" x2="1655.9" y2="935.522">
   <stop offset="0" style="stop-opacity:1; stop-color:#58C2AF"/>
   <stop offset="1" style="stop-opacity:1; stop-color:#DDE89C"/>
  </linearGradient>
  <linearGradient id="id3" gradientUnits="userSpaceOnUse" x1="1727.36" y1="1110.53" x2="1727.36" y2="1504.3">
   <stop offset="0" style="stop-opacity:1; stop-color:#F58B7D"/>
   <stop offset="1" style="stop-opacity:1; stop-color:#FDC87A"/>
  </linearGradient>
 </defs>
 <g id="Camada_x0020_1">
  <metadata id="CorelCorpID_0Corel-Layer"/>
  <g id="_2753970994912">
   <path class="fil0" d="M6872 2036c0,162 -131,293 -294,293l-6069 0c-163,0 -294,-131 -294,-293l0 -1591c0,-163 131,-294 294,-294l6069 0c163,0 294,131 294,294l0 1591z"/>
   <path class="fil1" d="M715 2004l0 -3 -3 0c0,0 0,-3 0,-3l0 -691 0 -671c0,-4 0,-4 0,-7l3 0 0 -3c0,-3 0,-6 0,-9l0 0 0 0c0,-3 3,-3 3,-3l0 0 0 0c0,-3 0,-3 0,-3l0 0 0 0c3,-4 3,-4 3,-7l0 0 0 0c4,0 4,-3 7,-3l0 0 0 0c0,0 0,-3 3,-3l0 0 0 0c3,0 3,0 6,-3l0 0 0 0 0 0 719 712 -81 85 0 0 0 0 -154 153 0 0 0 0 -156 150 0 0 0 0 -334 334 0 0c-10,-3 -16,-12 -16,-25l0 0z"/>
   <path class="fil2" d="M1390 1242l0 0 0 0 -153 -150 0 0 0 0 0 -3 0 0 0 0 -156 -153 0 0 0 0 -153 -150 0 -4 0 0 0 0 -153 -150 -38 -37c3,0 3,0 6,0l0 0 0 0c7,0 10,0 19,0l0 0 0 0c0,0 3,3 6,3l0 0 0 0c0,0 3,0 3,0l0 3 0 0c0,0 4,0 4,0l556 322 6 3 10 6 6 4 3 3 241 137 59 35 -200 196 -66 -65 0 0z"/>
   <path class="fil3" d="M731 2029l0 0 0 0 28 -28 0 0 0 0 153 -153 0 0 0 0 544 -541 200 200 -9 7 -254 143 0 0 0 0 -37 22 0 0 -3 3 -13 7 -3 3 -31 19 -3 0 -35 21 0 0 0 0 -312 179 0 0 0 0 -91 53 -72 40 -22 13 0 0 0 0 -9 6 0 0 0 0 0 0c0,0 0,0 0,0l0 0 0 0c-3,0 -3,3 -3,3l0 0 0 0c-3,0 -6,0 -9,3l0 0 0 0c-4,0 -4,0 -7,0l-6 0c0,0 -3,0 -6,0l0 0z"/>
   <path class="fil4" d="M1547 1398l0 0 0 0 -91 -91 72 -68 0 0 0 0 128 -128c0,0 262,153 291,168l0 0 3 0c3,0 3,3 3,3l0 0 0 0c3,0 3,4 6,4l0 0 0 0 0 0 0 3 0 0c0,0 3,0 3,0l0 0 0 0c0,0 0,0 0,0l0 0 0 0c3,3 3,6 6,9l0 0 0 0c0,0 0,3 0,3l0 0 0 0c4,6 4,13 0,19l0 0 0 0c0,0 -3,0 -3,0l0 0 0 0c0,6 -6,9 -9,16l0 0 0 0c-3,0 -6,3 -9,3l-22 12 -19 13 -6 3 0 0 0 0 -3 0 -169 100 0 0 -38 22 -9 3 -9 6 -4 3 -6 3 -6 3 0 0 -109 -109 0 0z"/>
   <path class="fil5" d="M5387 1207c-43,0 -75,13 -97,38 -18,22 -28,62 -28,116l0 12c0,63 10,106 28,131 22,25 54,38 97,38 38,0 69,-16 88,-44 22,-31 31,-72 31,-125 0,-53 -9,-94 -31,-122 -19,-28 -50,-44 -88,-44l0 0zm10 391c-28,0 -53,-6 -78,-16 -22,-12 -41,-28 -57,-46l-6 0c3,25 6,46 6,68l0 178 -65 0 0 -621 53 0 9 59 3 0c16,-25 35,-41 57,-53 25,-10 50,-16 78,-16 56,0 100,22 131,60 31,37 47,93 47,162 0,72 -16,125 -47,166 -31,37 -75,59 -131,59z"/>
   <polygon class="fil5" points="5659,1589 5725,1589 5725,979 5659,979 "/>
   <path class="fil5" d="M5953 1545c41,0 72,-13 94,-34 25,-22 34,-54 34,-94l0 -38 -65 3c-50,0 -88,10 -110,22 -25,16 -34,38 -34,66 0,25 6,44 22,56 12,13 31,19 59,19l0 0zm147 44l-16 -60 -3 0c-19,25 -40,44 -62,53 -22,10 -47,16 -82,16 -40,0 -75,-12 -100,-34 -22,-22 -34,-53 -34,-94 0,-84 69,-131 206,-134l75 -4 0 -28c0,-31 -9,-56 -22,-72 -15,-18 -37,-25 -68,-25 -38,0 -78,10 -122,32l-22 -50c22,-10 44,-19 72,-25 25,-7 50,-10 75,-10 50,0 87,10 112,35 25,22 38,56 38,106l0 294 -47 0 0 0z"/>
   <path class="fil5" d="M6184 1161l69 0 94 243c22,57 34,97 40,122l4 0c3,-12 9,-37 21,-69 10,-31 44,-131 107,-296l68 0 -184 487c-19,50 -41,84 -66,103 -21,22 -53,31 -87,31 -22,0 -41,-3 -59,-6l0 -53c12,3 31,6 46,6 44,0 79,-25 97,-78l22 -59 -172 -431 0 0z"/>
   <path class="fil5" d="M4156 1429c19,-22 22,-50 22,-65 0,-66 -38,-166 -113,-166 -25,0 -50,13 -62,28 -16,19 -22,44 -22,69 0,59 34,159 113,159 21,0 46,-12 62,-25zm-28 169c-6,0 -9,0 -19,0 -9,0 -56,0 -94,13 -21,9 -78,31 -78,93 0,63 63,110 157,110 87,0 134,-41 134,-97 0,-47 -31,-69 -100,-119l0 0zm66 -397c18,16 62,53 62,119 0,69 -37,100 -75,128 -12,13 -25,25 -25,44 0,22 13,31 22,40l34 25c38,32 75,63 75,125 0,85 -81,169 -237,169 -128,0 -191,-62 -191,-128 0,-31 16,-78 69,-109 56,-35 131,-38 172,-41 -13,-16 -28,-34 -28,-62 0,-16 3,-22 9,-35 -9,0 -19,3 -28,3 -97,0 -150,-72 -150,-140 0,-44 19,-88 56,-122 53,-41 113,-50 163,-50l184 0 -56 34 -56 0 0 0z"/>
   <path class="fil5" d="M3740 1511c22,-29 25,-63 25,-97 0,-82 -37,-232 -146,-232 -32,0 -60,13 -82,32 -34,31 -40,72 -40,109 0,88 43,234 153,234 34,0 69,-18 90,-46l0 0zm-112 75c-144,0 -219,-113 -219,-213 0,-119 97,-219 231,-219 132,0 216,103 216,213 0,106 -81,219 -228,219l0 0z"/>
   <path class="fil5" d="M3253 1511c22,-29 28,-63 28,-97 0,-82 -38,-232 -150,-232 -28,0 -56,13 -78,32 -38,31 -44,72 -44,109 0,88 47,234 153,234 35,0 72,-18 91,-46l0 0zm-110 75c-143,0 -218,-113 -218,-213 0,-119 93,-219 231,-219 131,0 212,103 212,213 0,106 -81,219 -225,219l0 0z"/>
   <path class="fil5" d="M2856 1570l-128 31c-53,6 -100,13 -150,13 -250,0 -344,-182 -344,-325 0,-175 134,-338 366,-338 47,0 93,10 137,19 66,19 97,44 119,56l-75 72 -31 6 22 -34c-32,-31 -88,-84 -194,-84 -141,0 -250,106 -250,265 0,169 125,328 319,328 59,0 87,-12 115,-22l0 -146 -134 9 72 -41 190 0 -25 22c-6,6 -6,10 -9,16 0,9 0,34 0,44l0 109z"/>
   <path class="fil5" d="M4478 1545c-31,-3 -38,-9 -38,-44l0 -509c0,-3 0,-3 4,-6 3,-32 12,-38 37,-54l-128 0 -66 32 69 0 0 0 0 0 0 556c0,19 -3,22 -25,50l159 0 35 -22c-16,0 -31,-3 -47,-3l0 0z"/>
   <path class="fil5" d="M4759 1286c19,-7 28,-13 28,-25 0,-35 -40,-75 -90,-75 -35,0 -103,28 -103,125 0,12 3,31 3,46l162 -71zm85 265c-10,6 -19,13 -29,19 -31,12 -59,16 -87,16 -28,0 -75,-4 -119,-35 -62,-44 -90,-122 -90,-190 0,-138 112,-207 203,-207 34,0 65,10 93,25 44,32 57,69 63,91l-213 84 -68 7c25,112 100,178 184,178 47,0 81,-16 109,-32l-46 44 0 0z"/>
   <polygon class="fil5" points="4931,1161 4931,1220 4922,1220 4922,1161 4903,1161 4903,1154 4950,1154 4950,1161 "/>
   <polygon class="fil5" points="5012,1220 5012,1161 5009,1161 4994,1220 4987,1220 4969,1161 4969,1161 4969,1220 4962,1220 4962,1154 4972,1154 4990,1207 4990,1207 5006,1154 5019,1154 5019,1220 "/>
   <path class="fil6" d="M2350 698c-16,-47 -25,-75 -25,-78l-3 0c0,3 -7,28 -25,78l53 0 0 0zm62 78l-44 0c0,-6 -3,-22 -12,-53l-66 0c-6,31 -12,47 -12,53l-41 0c0,-3 10,-31 31,-87 22,-57 35,-88 35,-94l53 0c0,6 9,34 28,91 19,56 28,87 28,90z"/>
   <path class="fil6" d="M2593 776l-34 0c0,-3 -12,-22 -37,-59 -29,-38 -44,-66 -47,-78l-3 0c3,18 6,37 6,53 0,25 0,53 0,84l-35 0c4,-28 4,-59 4,-94 0,-34 0,-62 -4,-87l41 0c0,6 13,25 34,59 25,38 41,63 44,75l3 0c-3,-22 -3,-40 -3,-56 0,-25 -3,-53 -3,-78l34 0c0,22 0,53 0,87 0,35 0,66 0,94z"/>
   <path class="fil6" d="M2759 686c0,-19 -6,-35 -16,-44 -12,-13 -28,-19 -50,-19 -3,0 -9,0 -15,0 0,19 3,38 3,59 0,22 0,44 0,66 6,0 12,3 19,3 18,0 34,-6 43,-19 10,-12 16,-28 16,-46l0 0zm38 -7c0,28 -10,50 -25,69 -19,22 -41,31 -72,31 -13,0 -32,0 -57,-3 0,-28 0,-59 0,-94 0,-34 0,-62 0,-87l25 0c4,0 10,0 16,0 9,0 16,0 16,0 34,0 59,6 75,25 15,16 22,37 22,59z"/>
   <path class="fil6" d="M2931 648c0,-19 -13,-28 -34,-28 -10,0 -19,0 -25,3 0,13 3,31 3,56 3,0 9,0 12,0 28,0 44,-9 44,-31zm53 128l-41 0c-12,-31 -21,-53 -25,-59 -6,-10 -15,-13 -28,-13 -6,0 -12,0 -15,0 0,25 0,47 0,72l-38 0c0,-28 0,-59 0,-94 0,-34 0,-62 0,-87l22 0c3,0 9,0 19,0 9,0 15,0 25,0 44,0 62,12 62,44 0,22 -9,37 -34,47l0 3c9,3 16,9 25,22 6,12 16,34 28,65l0 0z"/>
   <path class="fil6" d="M3147 686c0,-19 -7,-35 -16,-47 -9,-13 -22,-19 -38,-19 -12,0 -25,6 -34,19 -9,12 -16,28 -16,47 0,18 7,34 16,46 9,13 22,19 38,19 12,0 25,-6 34,-19 9,-12 16,-28 16,-46zm37 -4c0,29 -9,54 -25,72 -19,19 -41,28 -66,28 -25,0 -46,-9 -62,-25 -16,-18 -25,-40 -25,-68 0,-28 9,-50 25,-69 19,-19 41,-28 66,-28 25,0 46,6 62,25 16,15 25,37 25,65l0 0z"/>
   <path class="fil6" d="M3262 776l-37 0c0,-28 0,-59 0,-94 0,-34 0,-62 0,-87l37 0c0,22 0,53 0,87 0,35 0,66 0,94z"/>
   <path class="fil6" d="M3428 686c0,-19 -6,-35 -16,-44 -9,-13 -28,-19 -47,-19 -6,0 -9,0 -18,0 3,19 3,38 3,59 0,22 0,44 0,66 6,0 12,3 18,3 19,0 35,-6 44,-19 10,-12 16,-28 16,-46zm37 -7c0,28 -9,50 -25,69 -15,22 -40,31 -72,31 -12,0 -31,0 -56,-3 0,-28 3,-59 3,-94 0,-34 -3,-62 -3,-87l25 0c3,0 10,0 16,0 9,0 15,0 15,0 35,0 60,6 75,25 16,16 22,37 22,59z"/>
   <path class="fil6" d="M3672 698c-19,-47 -25,-75 -25,-78l-3 0c0,3 -7,28 -25,78l53 0 0 0zm62 78l-44 0c0,-6 -3,-22 -12,-53l-66 0c-9,31 -12,47 -12,53l-44 0c0,-3 13,-31 34,-87 22,-57 32,-88 32,-94l53 0c0,6 9,34 31,91 19,56 28,87 28,90l0 0z"/>
   <path class="fil6" d="M3862 651c0,-22 -12,-31 -40,-31 -7,0 -13,0 -22,3 3,16 3,38 3,59 3,0 6,0 9,0 32,0 50,-9 50,-31l0 0zm35 -9c0,22 -7,40 -25,50 -16,9 -35,15 -60,15 -3,0 -6,0 -9,0 0,19 0,41 0,69l-38 0c0,-25 0,-59 0,-94 0,-34 0,-62 0,-87l25 0c4,0 10,0 19,0 10,0 19,0 25,0 19,0 35,3 47,12 9,7 16,19 16,35l0 0z"/>
   <path class="fil6" d="M4031 651c0,-22 -16,-31 -41,-31 -6,0 -15,0 -21,3 0,16 3,38 3,59 0,0 3,0 6,0 34,0 53,-9 53,-31l0 0zm34 -9c0,22 -9,40 -25,50 -15,9 -37,15 -59,15 -6,0 -9,0 -9,0 0,19 0,41 0,69l-38 0c0,-25 0,-59 0,-94 0,-34 0,-62 0,-87l22 0c3,0 13,0 22,0 9,0 19,0 25,0 19,0 31,3 44,12 12,7 18,19 18,35l0 0z"/>
   <path class="fil6" d="M4300 686c0,-19 -3,-35 -13,-47 -9,-13 -22,-19 -37,-19 -13,0 -25,6 -35,19 -9,12 -15,28 -15,47 0,18 6,34 15,46 10,13 22,19 38,19 12,0 25,-6 34,-19 10,-12 13,-28 13,-46zm40 -4c0,29 -9,54 -28,72 -15,19 -37,28 -62,28 -25,0 -47,-9 -63,-25 -15,-18 -25,-40 -25,-68 0,-28 10,-50 25,-69 19,-19 41,-28 66,-28 25,0 47,6 62,25 16,15 25,37 25,65l0 0z"/>
   <path class="fil6" d="M4528 776l-34 0c0,-3 -13,-22 -38,-59 -25,-38 -41,-66 -47,-78l0 0c0,18 3,37 3,53 0,25 0,53 0,84l-34 0c3,-28 3,-59 3,-94 0,-34 0,-62 -3,-87l44 0c0,6 9,25 34,59 25,38 38,63 41,75l3 0c-3,-22 -3,-40 -3,-56 0,-25 0,-53 -3,-78l34 0c0,22 0,53 0,87 0,35 0,66 0,94z"/>
  </g>
 </g>
</svg>
