<?xml version="1.0" encoding="UTF-8"?>
<!DOCTYPE svg PUBLIC "-//W3C//DTD SVG 1.1//EN" "http://www.w3.org/Graphics/SVG/1.1/DTD/svg11.dtd">
<!-- Creator: CorelDRAW X8 -->
<svg xmlns="http://www.w3.org/2000/svg" xml:space="preserve" width="2480px" height="1707px" version="1.1" style="shape-rendering:geometricPrecision; text-rendering:geometricPrecision; image-rendering:optimizeQuality; fill-rule:evenodd; clip-rule:evenodd"
viewBox="0 0 2480 1706"
 xmlns:xlink="http://www.w3.org/1999/xlink">
 <defs>
  <style type="text/css">
   <![CDATA[
    .fil0 {fill:#FEFEFE}
   ]]>
  </style>
 </defs>
 <g id="Camada_x0020_1">
  <metadata id="CorelCorpID_0Corel-Layer"/>
  <path class="fil0" d="M2350 1280l-2220 0c-47,0 -86,39 -86,86l0 171c0,47 39,85 86,85l2220 0c47,0 86,-38 86,-85l0 -171c0,-47 -39,-86 -86,-86l0 0zm86 -598l-2306 0c-47,0 -86,39 -86,86l0 171c0,47 39,85 86,85l2220 0c47,0 86,-38 86,-85l0 -171c0,-47 -39,-86 -86,-86l86 0zm0 -597l-2306 0c-47,0 -86,38 -86,85l0 171c0,47 39,85 86,85l2220 0c47,0 86,-38 86,-85l0 -171c0,-47 -39,-85 -86,-85l86 0z"/>
 </g>
</svg>
