<?xml version="1.0" encoding="UTF-8"?>
<!DOCTYPE svg PUBLIC "-//W3C//DTD SVG 1.1//EN" "http://www.w3.org/Graphics/SVG/1.1/DTD/svg11.dtd">
<!-- Creator: CorelDRAW X8 -->
<svg xmlns="http://www.w3.org/2000/svg" xml:space="preserve" width="2480px" height="1028px" version="1.1" style="shape-rendering:geometricPrecision; text-rendering:geometricPrecision; image-rendering:optimizeQuality; fill-rule:evenodd; clip-rule:evenodd"
viewBox="0 0 2480 1027"
 xmlns:xlink="http://www.w3.org/1999/xlink">
 <defs>
  <style type="text/css">
   <![CDATA[
    .fil5 {fill:#F8F8F8;fill-rule:nonzero}
    .fil0 {fill:#373435;fill-rule:nonzero}
    .fil6 {fill:#F9F8F8;fill-rule:nonzero}
    .fil1 {fill:url(#id0)}
    .fil3 {fill:url(#id1)}
    .fil2 {fill:url(#id2)}
    .fil4 {fill:url(#id3)}
   ]]>
  </style>
  <linearGradient id="id0" gradientUnits="userSpaceOnUse" x1="453.529" y1="299.688" x2="453.529" y2="771.422">
   <stop offset="0" style="stop-opacity:1; stop-color:#3781B2"/>
   <stop offset="0.458824" style="stop-opacity:1; stop-color:#61A8B8"/>
   <stop offset="1" style="stop-opacity:1; stop-color:#8CD0BF"/>
  </linearGradient>
  <linearGradient id="id1" gradientUnits="userSpaceOnUse" x1="485.421" y1="535.642" x2="485.421" y2="773.132">
   <stop offset="0" style="stop-opacity:1; stop-color:#EC4B49"/>
   <stop offset="1" style="stop-opacity:1; stop-color:#8E55A0"/>
  </linearGradient>
  <linearGradient id="id2" gradientUnits="userSpaceOnUse" x1="334.592" y1="416.595" x2="636.111" y2="416.595">
   <stop offset="0" style="stop-opacity:1; stop-color:#58C2AF"/>
   <stop offset="1" style="stop-opacity:1; stop-color:#DDE89C"/>
  </linearGradient>
  <linearGradient id="id3" gradientUnits="userSpaceOnUse" x1="659.449" y1="472.174" x2="659.449" y2="598.676">
   <stop offset="0" style="stop-opacity:1; stop-color:#F58B7D"/>
   <stop offset="1" style="stop-opacity:1; stop-color:#FDC87A"/>
  </linearGradient>
 </defs>
 <g id="Camada_x0020_1">
  <metadata id="CorelCorpID_0Corel-Layer"/>
  <g id="_2753970994912">
   <path class="fil0" d="M2305 768c0,52 -42,94 -94,94l-1942 0c-52,0 -94,-42 -94,-94l0 -509c0,-52 42,-94 94,-94l1942 0c52,0 94,42 94,94l0 509z"/>
   <path class="fil1" d="M335 758l0 -1 -1 0c0,0 0,-1 0,-1l0 -221 0 -215c0,-1 0,-1 0,-2l1 0 0 -1c0,-1 0,-2 0,-3l0 0 0 0c0,-1 1,-1 1,-1l0 0 0 0c0,-1 0,-1 0,-1l0 0 0 0c1,-1 1,-1 1,-2l0 0 0 0c1,0 1,-1 2,-1l0 0 0 0c0,0 0,-1 1,-1l0 0 0 0c1,0 1,0 2,-1l0 0 0 0 0 0 230 228 -26 27 0 0 0 0 -49 49 0 0 0 0 -50 48 0 0 0 0 -107 107 0 0c-3,-1 -5,-4 -5,-8z"/>
   <path class="fil2" d="M551 514l0 0 0 0 -49 -48 0 0 0 0 0 -1 0 0 0 0 -50 -49 0 0 0 0 -49 -48 0 -1 0 0 0 0 -49 -48 -12 -12c1,0 1,0 2,0l0 0 0 0c2,0 3,0 6,0l0 0 0 0c0,0 1,1 2,1l0 0 0 0c0,0 1,0 1,0l0 1 0 0c0,0 1,0 1,0l178 103 2 1 3 2 2 1 1 1 77 44 19 11 -64 63 -21 -21z"/>
   <path class="fil3" d="M340 766l0 0 0 0 9 -9 0 0 0 0 49 -49 0 0 0 0 174 -173 64 64 -3 2 -81 46 0 0 0 0 -12 7 0 0 -1 1 -4 2 -1 1 -10 6 -1 0 -11 7 0 0 0 0 -100 57 0 0 0 0 -29 17 -23 13 -7 4 0 0 0 0 -3 2 0 0 0 0 0 0c0,0 0,0 0,0l0 0 0 0c-1,0 -1,1 -1,1l0 0 0 0c-1,0 -2,0 -3,1l0 0 0 0c-1,0 -1,0 -2,0l-2 0c0,0 -1,0 -2,0z"/>
   <path class="fil4" d="M601 564l0 0 0 0 -29 -29 23 -22 0 0 0 0 41 -41c0,0 84,49 93,54l0 0 1 0c1,0 1,1 1,1l0 0 0 0c1,0 1,1 2,1l0 0 0 0 0 0 0 1 0 0c0,0 1,0 1,0l0 0 0 0c0,0 0,0 0,0l0 0 0 0c1,1 1,2 2,3l0 0 0 0c0,0 0,1 0,1l0 0 0 0c1,2 1,4 0,6l0 0 0 0c0,0 -1,0 -1,0l0 0 0 0c0,2 -2,3 -3,5l0 0 0 0c-1,0 -2,1 -3,1l-7 4 -6 4 -2 1 0 0 0 0 -1 0 -54 32 0 0 -12 7 -3 1 -3 2 -1 1 -2 1 -2 1 0 0 -35 -35z"/>
   <path class="fil5" d="M1830 503c-14,0 -24,4 -31,12 -6,7 -9,20 -9,37l0 4c0,20 3,34 9,42 7,8 17,12 31,12 12,0 22,-5 28,-14 7,-10 10,-23 10,-40 0,-17 -3,-30 -10,-39 -6,-9 -16,-14 -28,-14zm3 125c-9,0 -17,-2 -25,-5 -7,-4 -13,-9 -18,-15l-2 0c1,8 2,15 2,22l0 57 -21 0 0 -199 17 0 3 19 1 0c5,-8 11,-13 18,-17 8,-3 16,-5 25,-5 18,0 32,7 42,19 10,12 15,30 15,52 0,23 -5,40 -15,53 -10,12 -24,19 -42,19z"/>
   <polygon class="fil5" points="1917,625 1938,625 1938,430 1917,430 "/>
   <path class="fil5" d="M2011 611c13,0 23,-4 30,-11 8,-7 11,-17 11,-30l0 -12 -21 1c-16,0 -28,3 -35,7 -8,5 -11,12 -11,21 0,8 2,14 7,18 4,4 10,6 19,6zm47 14l-5 -19 -1 0c-6,8 -13,14 -20,17 -7,3 -15,5 -26,5 -13,0 -24,-4 -32,-11 -7,-7 -11,-17 -11,-30 0,-27 22,-42 66,-43l24 -1 0 -9c0,-10 -3,-18 -7,-23 -5,-6 -12,-8 -22,-8 -12,0 -25,3 -39,10l-7 -16c7,-3 14,-6 23,-8 8,-2 16,-3 24,-3 16,0 28,3 36,11 8,7 12,18 12,34l0 94 -15 0z"/>
   <path class="fil5" d="M2085 488l22 0 30 78c7,18 11,31 13,39l1 0c1,-4 3,-12 7,-22 3,-10 14,-42 34,-95l22 0 -59 156c-6,16 -13,27 -21,33 -7,7 -17,10 -28,10 -7,0 -13,-1 -19,-2l0 -17c4,1 10,2 15,2 14,0 25,-8 31,-25l7 -19 -55 -138z"/>
   <path class="fil5" d="M1436 574c6,-7 7,-16 7,-21 0,-21 -12,-53 -36,-53 -8,0 -16,4 -20,9 -5,6 -7,14 -7,22 0,19 11,51 36,51 7,0 15,-4 20,-8zm-9 54c-2,0 -3,0 -6,0 -3,0 -18,0 -30,4 -7,3 -25,10 -25,30 0,20 20,35 50,35 28,0 43,-13 43,-31 0,-15 -10,-22 -32,-38zm21 -127c6,5 20,17 20,38 0,22 -12,32 -24,41 -4,4 -8,8 -8,14 0,7 4,10 7,13l11 8c12,10 24,20 24,40 0,27 -26,54 -76,54 -41,0 -61,-20 -61,-41 0,-10 5,-25 22,-35 18,-11 42,-12 55,-13 -4,-5 -9,-11 -9,-20 0,-5 1,-7 3,-11 -3,0 -6,1 -9,1 -31,0 -48,-23 -48,-45 0,-14 6,-28 18,-39 17,-13 36,-16 52,-16l59 0 -18 11 -18 0z"/>
   <path class="fil5" d="M1303 600c7,-9 8,-20 8,-31 0,-26 -12,-74 -47,-74 -10,0 -19,4 -26,10 -11,10 -13,23 -13,35 0,28 14,75 49,75 11,0 22,-6 29,-15zm-36 24c-46,0 -70,-36 -70,-68 0,-38 31,-70 74,-70 42,0 69,33 69,68 0,34 -26,70 -73,70z"/>
   <path class="fil5" d="M1147 600c7,-9 9,-20 9,-31 0,-26 -12,-74 -48,-74 -9,0 -18,4 -25,10 -12,10 -14,23 -14,35 0,28 15,75 49,75 11,0 23,-6 29,-15zm-35 24c-46,0 -70,-36 -70,-68 0,-38 30,-70 74,-70 42,0 68,33 68,68 0,34 -26,70 -72,70z"/>
   <path class="fil5" d="M1020 619l-41 10c-17,2 -32,4 -48,4 -80,0 -110,-58 -110,-104 0,-56 43,-108 117,-108 15,0 30,3 44,6 21,6 31,14 38,18l-24 23 -10 2 7 -11c-10,-10 -28,-27 -62,-27 -45,0 -80,34 -80,85 0,54 40,105 102,105 19,0 28,-4 37,-7l0 -47 -43 3 23 -13 61 0 -8 7c-2,2 -2,3 -3,5 0,3 0,11 0,14l0 35z"/>
   <path class="fil5" d="M1539 611c-10,-1 -12,-3 -12,-14l0 -163c0,-1 0,-1 1,-2 1,-10 4,-12 12,-17l-41 0 -21 10 22 0 0 0 0 0 0 178c0,6 -1,7 -8,16l51 0 11 -7c-5,0 -10,-1 -15,-1z"/>
   <path class="fil5" d="M1629 528c6,-2 9,-4 9,-8 0,-11 -13,-24 -29,-24 -11,0 -33,9 -33,40 0,4 1,10 1,15l52 -23zm27 85c-3,2 -6,4 -9,6 -10,4 -19,5 -28,5 -9,0 -24,-1 -38,-11 -20,-14 -29,-39 -29,-61 0,-44 36,-66 65,-66 11,0 21,3 30,8 14,10 18,22 20,29l-68 27 -22 2c8,36 32,57 59,57 15,0 26,-5 35,-10l-15 14z"/>
   <polygon class="fil5" points="1684,488 1684,507 1681,507 1681,488 1675,488 1675,486 1690,486 1690,488 "/>
   <polygon class="fil5" points="1710,507 1710,488 1709,488 1704,507 1702,507 1696,488 1696,488 1696,507 1694,507 1694,486 1697,486 1703,503 1703,503 1708,486 1712,486 1712,507 "/>
   <path class="fil6" d="M858 340c-5,-15 -8,-24 -8,-25l-1 0c0,1 -2,9 -8,25l17 0zm20 25l-14 0c0,-2 -1,-7 -4,-17l-21 0c-2,10 -4,15 -4,17l-13 0c0,-1 3,-10 10,-28 7,-18 11,-28 11,-30l17 0c0,2 3,11 9,29 6,18 9,28 9,29z"/>
   <path class="fil6" d="M936 365l-11 0c0,-1 -4,-7 -12,-19 -9,-12 -14,-21 -15,-25l-1 0c1,6 2,12 2,17 0,8 0,17 0,27l-11 0c1,-9 1,-19 1,-30 0,-11 0,-20 -1,-28l13 0c0,2 4,8 11,19 8,12 13,20 14,24l1 0c-1,-7 -1,-13 -1,-18 0,-8 -1,-17 -1,-25l11 0c0,7 0,17 0,28 0,11 0,21 0,30z"/>
   <path class="fil6" d="M989 336c0,-6 -2,-11 -5,-14 -4,-4 -9,-6 -16,-6 -1,0 -3,0 -5,0 0,6 1,12 1,19 0,7 0,14 0,21 2,0 4,1 6,1 6,0 11,-2 14,-6 3,-4 5,-9 5,-15zm12 -2c0,9 -3,16 -8,22 -6,7 -13,10 -23,10 -4,0 -10,0 -18,-1 0,-9 0,-19 0,-30 0,-11 0,-20 0,-28l8 0c1,0 3,0 5,0 3,0 5,0 5,0 11,0 19,2 24,8 5,5 7,12 7,19z"/>
   <path class="fil6" d="M1044 324c0,-6 -4,-9 -11,-9 -3,0 -6,0 -8,1 0,4 1,10 1,18 1,0 3,0 4,0 9,0 14,-3 14,-10zm17 41l-13 0c-4,-10 -7,-17 -8,-19 -2,-3 -5,-4 -9,-4 -2,0 -4,0 -5,0 0,8 0,15 0,23l-12 0c0,-9 0,-19 0,-30 0,-11 0,-20 0,-28l7 0c1,0 3,0 6,0 3,0 5,0 8,0 14,0 20,4 20,14 0,7 -3,12 -11,15l0 1c3,1 5,3 8,7 2,4 5,11 9,21z"/>
   <path class="fil6" d="M1113 336c0,-6 -2,-11 -5,-15 -3,-4 -7,-6 -12,-6 -4,0 -8,2 -11,6 -3,4 -5,9 -5,15 0,6 2,11 5,15 3,4 7,6 12,6 4,0 8,-2 11,-6 3,-4 5,-9 5,-15zm12 -1c0,9 -3,17 -8,23 -6,6 -13,9 -21,9 -8,0 -15,-3 -20,-8 -5,-6 -8,-13 -8,-22 0,-9 3,-16 8,-22 6,-6 13,-9 21,-9 8,0 15,2 20,8 5,5 8,12 8,21z"/>
   <path class="fil6" d="M1150 365l-12 0c0,-9 0,-19 0,-30 0,-11 0,-20 0,-28l12 0c0,7 0,17 0,28 0,11 0,21 0,30z"/>
   <path class="fil6" d="M1203 336c0,-6 -2,-11 -5,-14 -3,-4 -9,-6 -15,-6 -2,0 -3,0 -6,0 1,6 1,12 1,19 0,7 0,14 0,21 2,0 4,1 6,1 6,0 11,-2 14,-6 3,-4 5,-9 5,-15zm12 -2c0,9 -3,16 -8,22 -5,7 -13,10 -23,10 -4,0 -10,0 -18,-1 0,-9 1,-19 1,-30 0,-11 -1,-20 -1,-28l8 0c1,0 3,0 5,0 3,0 5,0 5,0 11,0 19,2 24,8 5,5 7,12 7,19z"/>
   <path class="fil6" d="M1281 340c-6,-15 -8,-24 -8,-25l-1 0c0,1 -2,9 -8,25l17 0zm20 25l-14 0c0,-2 -1,-7 -4,-17l-21 0c-3,10 -4,15 -4,17l-14 0c0,-1 4,-10 11,-28 7,-18 10,-28 10,-30l17 0c0,2 3,11 10,29 6,18 9,28 9,29z"/>
   <path class="fil6" d="M1342 325c0,-7 -4,-10 -13,-10 -2,0 -4,0 -7,1 1,5 1,12 1,19 1,0 2,0 3,0 10,0 16,-3 16,-10zm11 -3c0,7 -2,13 -8,16 -5,3 -11,5 -19,5 -1,0 -2,0 -3,0 0,6 0,13 0,22l-12 0c0,-8 0,-19 0,-30 0,-11 0,-20 0,-28l8 0c1,0 3,0 6,0 3,0 6,0 8,0 6,0 11,1 15,4 3,2 5,6 5,11z"/>
   <path class="fil6" d="M1396 325c0,-7 -5,-10 -13,-10 -2,0 -5,0 -7,1 0,5 1,12 1,19 0,0 1,0 2,0 11,0 17,-3 17,-10zm11 -3c0,7 -3,13 -8,16 -5,3 -12,5 -19,5 -2,0 -3,0 -3,0 0,6 0,13 0,22l-12 0c0,-8 0,-19 0,-30 0,-11 0,-20 0,-28l7 0c1,0 4,0 7,0 3,0 6,0 8,0 6,0 10,1 14,4 4,2 6,6 6,11z"/>
   <path class="fil6" d="M1482 336c0,-6 -1,-11 -4,-15 -3,-4 -7,-6 -12,-6 -4,0 -8,2 -11,6 -3,4 -5,9 -5,15 0,6 2,11 5,15 3,4 7,6 12,6 4,0 8,-2 11,-6 3,-4 4,-9 4,-15zm13 -1c0,9 -3,17 -9,23 -5,6 -12,9 -20,9 -8,0 -15,-3 -20,-8 -5,-6 -8,-13 -8,-22 0,-9 3,-16 8,-22 6,-6 13,-9 21,-9 8,0 15,2 20,8 5,5 8,12 8,21z"/>
   <path class="fil6" d="M1555 365l-11 0c0,-1 -4,-7 -12,-19 -8,-12 -13,-21 -15,-25l0 0c0,6 1,12 1,17 0,8 0,17 0,27l-11 0c1,-9 1,-19 1,-30 0,-11 0,-20 -1,-28l14 0c0,2 3,8 11,19 8,12 12,20 13,24l1 0c-1,-7 -1,-13 -1,-18 0,-8 0,-17 -1,-25l11 0c0,7 0,17 0,28 0,11 0,21 0,30z"/>
  </g>
 </g>
</svg>
