<?xml version="1.0" encoding="UTF-8"?>
<!DOCTYPE svg PUBLIC "-//W3C//DTD SVG 1.1//EN" "http://www.w3.org/Graphics/SVG/1.1/DTD/svg11.dtd">
<!-- Creator: CorelDRAW X8 -->
<svg xmlns="http://www.w3.org/2000/svg" xml:space="preserve" width="3508px" height="2480px" version="1.1" style="shape-rendering:geometricPrecision; text-rendering:geometricPrecision; image-rendering:optimizeQuality; fill-rule:evenodd; clip-rule:evenodd"
viewBox="0 0 3508 2480"
 xmlns:xlink="http://www.w3.org/1999/xlink">
 <defs>
  <style type="text/css">
   <![CDATA[
    .fil0 {fill:#F2BD36}
   ]]>
  </style>
 </defs>
 <g id="Camada_x0020_1">
  <metadata id="CorelCorpID_0Corel-Layer"/>
  <path class="fil0" d="M3343 1852l-3178 0c-68,0 -123,56 -123,124l0 244c0,68 55,122 123,122l3178 0c68,0 123,-54 123,-122l0 -244c0,-68 -55,-124 -123,-124l0 0zm123 -856l-3301 0c-68,0 -123,56 -123,123l0 245c0,67 55,122 123,122l3178 0c68,0 123,-55 123,-122l0 -245c0,-67 -55,-123 -123,-123l123 0zm0 -855l-3301 0c-68,0 -123,55 -123,122l0 245c0,67 55,122 123,122l3178 0c68,0 123,-55 123,-122l0 -245c0,-67 -55,-122 -123,-122l123 0z"/>
 </g>
</svg>
