<?xml version="1.0" encoding="UTF-8"?>
<!DOCTYPE svg PUBLIC "-//W3C//DTD SVG 1.1//EN" "http://www.w3.org/Graphics/SVG/1.1/DTD/svg11.dtd">
<!-- Creator: CorelDRAW X8 -->
<svg xmlns="http://www.w3.org/2000/svg" xml:space="preserve" width="7087px" height="2480px" version="1.1" style="shape-rendering:geometricPrecision; text-rendering:geometricPrecision; image-rendering:optimizeQuality; fill-rule:evenodd; clip-rule:evenodd"
viewBox="0 0 7087 2480"
 xmlns:xlink="http://www.w3.org/1999/xlink">
 <defs>
  <style type="text/css">
   <![CDATA[
    .fil0 {fill:#A9ABAE;fill-rule:nonzero}
    .fil5 {fill:#F8F8F8;fill-rule:nonzero}
    .fil6 {fill:#F9F8F8;fill-rule:nonzero}
    .fil1 {fill:url(#id0)}
    .fil3 {fill:url(#id1)}
    .fil4 {fill:url(#id2)}
    .fil2 {fill:url(#id3)}
   ]]>
  </style>
  <linearGradient id="id0" gradientUnits="userSpaceOnUse" x1="1083.99" y1="563.627" x2="1083.99" y2="2038.71">
   <stop offset="0" style="stop-opacity:1; stop-color:#3781B2"/>
   <stop offset="1" style="stop-opacity:1; stop-color:#8CD0BF"/>
  </linearGradient>
  <linearGradient id="id1" gradientUnits="userSpaceOnUse" x1="1184" y1="1301.16" x2="1184" y2="2041.83">
   <stop offset="0" style="stop-opacity:1; stop-color:#EC4B49"/>
   <stop offset="1" style="stop-opacity:1; stop-color:#8E55A0"/>
  </linearGradient>
  <linearGradient id="id2" gradientUnits="userSpaceOnUse" x1="1727.36" y1="1104.28" x2="1727.36" y2="1498.05">
   <stop offset="0" style="stop-opacity:1; stop-color:#F58B7D"/>
   <stop offset="1" style="stop-opacity:1; stop-color:#FDC87A"/>
  </linearGradient>
  <linearGradient id="id3" gradientUnits="userSpaceOnUse" x1="712.096" y1="929.271" x2="1655.9" y2="929.271">
   <stop offset="0" style="stop-opacity:1; stop-color:#58C2AF"/>
   <stop offset="1" style="stop-opacity:1; stop-color:#DDE89C"/>
  </linearGradient>
 </defs>
 <g id="Camada_x0020_1">
  <metadata id="CorelCorpID_0Corel-Layer"/>
  <g id="_2753973958752">
   <path class="fil0" d="M6872 2036c0,162 -131,293 -294,293l-6069 0c-163,0 -294,-131 -294,-293l0 -1591c0,-163 131,-294 294,-294l6069 0c163,0 294,131 294,294l0 1591z"/>
   <path class="fil1" d="M721 2017l0 0 0 0c0,0 0,0 0,0l0 0 0 0c-3,-3 -6,-10 -6,-13l0 0 0 0c0,-3 0,-3 0,-6l0 -3 -3 0c0,0 0,-3 0,-3l0 -688 0 -675c0,-3 0,-3 0,-6l3 0 0 -3c0,-3 0,-6 0,-9l0 0 0 0c0,-4 3,-4 3,-4l0 0 0 0c0,-3 3,-6 3,-9l0 0 0 0c4,0 4,0 4,0l0 0 0 0c0,-3 3,-3 3,-3l3 0 0 0c0,-3 3,-3 6,-6l0 0 0 0 0 0 719 715 -94 94 -156 153 0 0 0 0 -153 153 0 0 0 0 -153 153 -154 154 0 0 0 0 -15 12 0 0c-3,-3 -6,-3 -10,-6l0 0z"/>
   <path class="fil2" d="M1403 1251l0 0 0 0 0 -3 0 0 0 0 -153 -153 0 0 0 0 -4 0 0 0 0 0 -153 -153 0 0 0 0 -153 -153 0 0 0 0 -156 -153 0 0 0 0 -47 -47c3,0 6,0 9,0l0 0 7 0c3,0 3,0 6,0l0 0 0 0c3,3 3,3 6,3l0 0 0 0c3,0 3,0 6,3l0 0 0 0c0,0 0,0 4,0l0 0 0 0c0,0 0,0 3,0l0 3 0 0 0 0 6 3 528 306 3 0 16 10 9 3 7 6 6 3 3 3 300 172 -141 141 -59 59 -53 -53 0 0z"/>
   <path class="fil3" d="M743 2023l0 0 -6 0c-3,0 -3,0 -6,0l0 0 0 0 725 -719 200 197 -300 172 0 3 -6 0 -10 6 -3 4 -28 15 -13 6 -9 7 0 0 0 0 -219 128 0 0 0 0 -250 144 -25 15 -3 0 -25 16c-3,0 -3,0 -3,0l0 0 0 3c-3,0 -3,0 -3,0l0 0 0 0c-6,3 -13,3 -16,3l0 0z"/>
   <path class="fil4" d="M1556 1401l0 0 0 0 -100 -97 200 -200c0,0 262,153 291,169l3 3c3,0 3,0 3,0l0 0 0 0c3,3 6,3 6,6l0 0 0 0c0,0 3,0 3,0l0 0 0 0c3,4 3,7 6,10l0 0 0 0c0,0 0,3 0,3l0 0 0 0c4,6 4,12 0,19l0 0 0 0c0,0 0,0 -3,0l0 0 0 3c-3,3 -9,9 -15,15l0 0 0 0c0,0 -3,0 -3,4l-25 12 -4 3 -6 3 -6 3 -9 7 0 0 -16 9 0 0 -16 6 -22 16 -6 3 -12 6 -7 3 -21 13 -4 3 -18 9 -10 7 -28 15 -9 7 -13 6 -6 3 -19 12 -9 4 -9 6 -4 3 -3 0 -9 6 0 0 -100 -100 0 0z"/>
   <path class="fil5" d="M5387 1201c-43,0 -75,13 -97,38 -18,25 -28,62 -28,115l0 16c0,59 10,103 28,128 22,25 54,38 97,38 38,0 69,-13 88,-44 22,-31 31,-72 31,-125 0,-53 -9,-94 -31,-122 -19,-28 -50,-44 -88,-44l0 0zm10 391c-28,0 -53,-6 -78,-16 -22,-9 -41,-25 -57,-47l-6 0c3,25 6,47 6,69l0 178 -65 0 0 -622 53 0 9 60 3 0c16,-25 35,-41 57,-50 25,-13 50,-16 78,-16 56,0 100,19 131,56 31,41 47,94 47,166 0,69 -16,125 -47,162 -31,41 -75,60 -131,60z"/>
   <polygon class="fil5" points="5659,1582 5725,1582 5725,973 5659,973 "/>
   <path class="fil5" d="M5953 1539c41,0 72,-13 94,-35 25,-22 34,-53 34,-93l0 -38 -65 3c-50,0 -88,10 -110,22 -25,16 -34,38 -34,69 0,22 6,40 22,53 12,12 31,19 59,19zm147 43l-16 -59 -3 0c-19,25 -40,44 -62,53 -22,10 -47,16 -82,16 -40,0 -75,-13 -100,-35 -22,-21 -34,-53 -34,-93 0,-85 69,-132 206,-135l75 -3 0 -25c0,-34 -9,-59 -22,-75 -15,-15 -37,-25 -68,-25 -38,0 -78,10 -122,31l-22 -46c22,-13 44,-22 72,-29 25,-6 50,-9 75,-9 50,0 87,9 112,34 25,22 38,60 38,110l0 290 -47 0 0 0z"/>
   <path class="fil5" d="M6184 1154l69 0 94 244c22,56 34,97 40,122l4 0c3,-13 9,-34 21,-69 10,-31 44,-131 107,-297l68 0 -184 488c-19,50 -41,84 -66,103 -21,22 -53,31 -87,31 -22,0 -41,-3 -59,-6l0 -53c12,3 31,6 46,6 44,0 79,-25 97,-75l22 -62 -172 -432 0 0z"/>
   <path class="fil5" d="M4156 1423c19,-22 22,-50 22,-66 0,-65 -38,-165 -113,-165 -25,0 -50,12 -62,28 -16,19 -22,44 -22,69 0,59 34,159 113,159 21,0 46,-12 62,-25zm-28 169c-6,0 -9,0 -19,0 -9,0 -56,3 -94,15 -21,7 -78,29 -78,91 0,66 63,109 157,109 87,0 134,-40 134,-96 0,-44 -31,-69 -100,-119l0 0zm66 -397c18,16 62,53 62,122 0,65 -37,97 -75,125 -12,12 -25,25 -25,44 0,21 13,31 22,40l34 25c38,31 75,63 75,125 0,85 -81,169 -237,169 -128,0 -191,-63 -191,-128 0,-31 16,-78 69,-110 56,-34 131,-37 172,-40 -13,-16 -28,-35 -28,-63 0,-12 3,-22 9,-34 -9,3 -19,3 -28,3 -97,0 -150,-72 -150,-141 0,-40 19,-87 56,-121 53,-41 113,-50 163,-50l184 0 -56 34 -56 0 0 0z"/>
   <path class="fil5" d="M3740 1507c22,-31 25,-65 25,-100 0,-81 -37,-231 -146,-231 -32,0 -60,13 -82,31 -34,32 -40,72 -40,110 0,87 43,234 153,234 34,0 69,-15 90,-44l0 0zm-112 72c-144,0 -219,-112 -219,-212 0,-119 97,-219 231,-219 132,0 216,103 216,213 0,106 -81,218 -228,218l0 0z"/>
   <path class="fil5" d="M3253 1507c22,-31 28,-65 28,-100 0,-81 -38,-231 -150,-231 -28,0 -56,13 -78,31 -38,32 -44,72 -44,110 0,87 47,234 153,234 35,0 72,-15 91,-44l0 0zm-110 72c-143,0 -218,-112 -218,-212 0,-119 93,-219 231,-219 131,0 212,103 212,213 0,106 -81,218 -225,218l0 0z"/>
   <path class="fil5" d="M2856 1564l-128 31c-53,6 -100,16 -150,16 -250,0 -344,-185 -344,-329 0,-175 134,-334 366,-334 47,0 93,6 137,19 66,19 97,40 119,53l-75 72 -31 9 22 -37c-32,-32 -88,-85 -194,-85 -141,0 -250,107 -250,266 0,169 125,328 319,328 59,0 87,-12 115,-22l0 -144 -134 7 72 -41 190 0 -25 25c-6,3 -6,6 -9,13 0,9 0,34 0,43l0 110z"/>
   <path class="fil5" d="M4478 1539c-31,-3 -38,-10 -38,-44l0 -509c0,-4 0,-4 4,-7 3,-31 12,-37 37,-53l-128 0 -66 31 69 0 0 4 0 0 0 553c0,18 -3,22 -25,50l159 0 35 -22c-16,0 -31,-3 -47,-3l0 0z"/>
   <path class="fil5" d="M4759 1279c19,-6 28,-9 28,-22 0,-37 -40,-78 -90,-78 -35,0 -103,28 -103,125 0,16 3,32 3,47l162 -72zm85 269c-10,3 -19,9 -29,16 -31,12 -59,15 -87,15 -28,0 -75,0 -119,-34 -62,-44 -90,-122 -90,-188 0,-140 112,-209 203,-209 34,0 65,9 93,28 44,28 57,66 63,88l-213 84 -68 6c25,113 100,178 184,178 47,0 81,-15 109,-31l-46 47 0 0z"/>
   <polygon class="fil5" points="4931,1154 4931,1214 4922,1214 4922,1154 4903,1154 4903,1148 4950,1148 4950,1154 "/>
   <polygon class="fil5" points="5012,1214 5012,1154 5009,1154 4994,1214 4987,1214 4969,1154 4969,1154 4969,1214 4962,1214 4962,1148 4972,1148 4990,1201 4990,1201 5006,1148 5019,1148 5019,1214 "/>
   <path class="fil6" d="M2350 692c-16,-47 -25,-75 -25,-78l-3 0c0,3 -7,31 -25,78l53 0 0 0zm62 78l-44 0c0,-6 -3,-22 -12,-50l-66 0c-6,28 -12,44 -12,50l-41 0c0,-3 10,-31 31,-88 22,-56 35,-87 35,-93l53 0c0,6 9,37 28,90 19,57 28,88 28,91z"/>
   <path class="fil6" d="M2593 770l-34 0c0,-3 -12,-22 -37,-59 -29,-38 -44,-66 -47,-79l-3 0c3,19 6,38 6,54 0,25 0,53 0,84l-35 0c4,-28 4,-59 4,-94 0,-34 0,-62 -4,-87l41 0c0,6 13,25 34,59 25,38 41,63 44,75l3 0c-3,-22 -3,-41 -3,-56 0,-25 -3,-50 -3,-78l34 0c0,25 0,53 0,87 0,35 0,66 0,94z"/>
   <path class="fil6" d="M2759 679c0,-18 -6,-31 -16,-43 -12,-13 -28,-19 -50,-19 -3,0 -9,0 -15,0 0,19 3,37 3,59 0,22 0,44 0,66 6,3 12,3 19,3 18,0 34,-6 43,-19 10,-12 16,-28 16,-47l0 0zm38 -6c0,28 -10,50 -25,69 -19,22 -41,31 -72,31 -13,0 -32,0 -57,-3 0,-28 0,-59 0,-94 0,-34 0,-62 0,-87l25 0c4,0 10,0 16,0 9,0 16,0 16,0 34,0 59,9 75,25 15,15 22,37 22,59z"/>
   <path class="fil6" d="M2931 642c0,-19 -13,-28 -34,-28 -10,0 -19,3 -25,3 0,15 3,34 3,56 3,0 9,0 12,0 28,0 44,-9 44,-31zm53 128l-41 0c-12,-31 -21,-53 -25,-59 -6,-10 -15,-13 -28,-13 -6,0 -12,0 -15,0 0,25 0,50 0,72l-38 0c0,-28 0,-59 0,-94 0,-34 0,-62 0,-87l22 0c3,0 9,0 19,0 9,0 15,0 25,0 44,0 62,15 62,43 0,22 -9,41 -34,47l0 3c9,4 16,10 25,22 6,13 16,35 28,66l0 0z"/>
   <path class="fil6" d="M3147 679c0,-18 -7,-34 -16,-47 -9,-12 -22,-18 -38,-18 -12,0 -25,6 -34,18 -9,13 -16,29 -16,47 0,19 7,35 16,47 9,13 22,19 38,19 12,0 25,-6 34,-19 9,-12 16,-28 16,-47zm37 -3c0,28 -9,53 -25,72 -19,19 -41,28 -66,28 -25,0 -46,-9 -62,-25 -16,-19 -25,-40 -25,-65 0,-32 9,-54 25,-72 19,-19 41,-28 66,-28 25,0 46,9 62,25 16,18 25,40 25,65z"/>
   <path class="fil6" d="M3262 770l-37 0c0,-28 0,-59 0,-94 0,-34 0,-62 0,-87l37 0c0,25 0,53 0,87 0,35 0,66 0,94z"/>
   <path class="fil6" d="M3428 679c0,-18 -6,-31 -16,-43 -9,-13 -28,-19 -47,-19 -6,0 -9,0 -18,0 3,19 3,37 3,59 0,22 0,44 0,66 6,3 12,3 18,3 19,0 35,-6 44,-19 10,-12 16,-28 16,-47zm37 -6c0,28 -9,50 -25,69 -15,22 -40,31 -72,31 -12,0 -31,0 -56,-3 0,-28 3,-59 3,-94 0,-34 -3,-62 -3,-87l25 0c3,0 10,0 16,0 9,0 15,0 15,0 35,0 60,9 75,25 16,15 22,37 22,59z"/>
   <path class="fil6" d="M3672 692c-19,-47 -25,-75 -25,-78l-3 0c0,3 -7,31 -25,78l53 0 0 0zm62 78l-44 0c0,-6 -3,-22 -12,-50l-66 0c-9,28 -12,44 -12,50l-44 0c0,-3 13,-31 34,-88 22,-56 32,-87 32,-93l53 0c0,6 9,37 31,90 19,57 28,88 28,91l0 0z"/>
   <path class="fil6" d="M3862 645c0,-22 -12,-31 -40,-31 -7,0 -13,0 -22,3 3,19 3,37 3,59 3,0 6,0 9,0 32,0 50,-9 50,-31l0 0zm35 -9c0,25 -7,40 -25,50 -16,12 -35,15 -60,15 -3,0 -6,0 -9,0 0,19 0,41 0,69l-38 0c0,-25 0,-56 0,-94 0,-34 0,-62 0,-87l25 0c4,0 10,0 19,0 10,0 19,0 25,0 19,0 35,3 47,12 9,6 16,19 16,35l0 0z"/>
   <path class="fil6" d="M4031 645c0,-22 -16,-31 -41,-31 -6,0 -15,0 -21,3 0,19 3,37 3,59 0,0 3,0 6,0 34,0 53,-9 53,-31l0 0zm34 -9c0,25 -9,40 -25,50 -15,12 -37,15 -59,15 -6,0 -9,0 -9,0 0,19 0,41 0,69l-38 0c0,-25 0,-56 0,-94 0,-34 0,-62 0,-87l22 0c3,0 13,0 22,0 9,0 19,0 25,0 19,0 31,3 44,12 12,6 18,19 18,35l0 0z"/>
   <path class="fil6" d="M4300 679c0,-18 -3,-34 -13,-47 -9,-12 -22,-18 -37,-18 -13,0 -25,6 -35,18 -9,13 -15,29 -15,47 0,19 6,35 15,47 10,13 22,19 38,19 12,0 25,-6 34,-19 10,-12 13,-28 13,-47zm40 -3c0,28 -9,53 -28,72 -15,19 -37,28 -62,28 -25,0 -47,-9 -63,-25 -15,-19 -25,-40 -25,-65 0,-32 10,-54 25,-72 19,-19 41,-28 66,-28 25,0 47,9 62,25 16,18 25,40 25,65z"/>
   <path class="fil6" d="M4528 770l-34 0c0,-3 -13,-22 -38,-59 -25,-38 -41,-66 -47,-79l0 0c0,19 3,38 3,54 0,25 0,53 0,84l-34 0c3,-28 3,-59 3,-94 0,-34 0,-62 -3,-87l44 0c0,6 9,25 34,59 25,38 38,63 41,75l3 0c-3,-22 -3,-41 -3,-56 0,-25 0,-50 -3,-78l34 0c0,25 0,53 0,87 0,35 0,66 0,94z"/>
  </g>
 </g>
</svg>
