<?xml version="1.0" encoding="UTF-8"?>
<!DOCTYPE svg PUBLIC "-//W3C//DTD SVG 1.1//EN" "http://www.w3.org/Graphics/SVG/1.1/DTD/svg11.dtd">
<!-- Creator: CorelDRAW X8 -->
<svg xmlns="http://www.w3.org/2000/svg" xml:space="preserve" width="2480px" height="1028px" version="1.1" style="shape-rendering:geometricPrecision; text-rendering:geometricPrecision; image-rendering:optimizeQuality; fill-rule:evenodd; clip-rule:evenodd"
viewBox="0 0 2480 1027"
 xmlns:xlink="http://www.w3.org/1999/xlink">
 <defs>
  <style type="text/css">
   <![CDATA[
    .fil5 {fill:#F8F8F8;fill-rule:nonzero}
    .fil0 {fill:#A9ABAE;fill-rule:nonzero}
    .fil6 {fill:#F9F8F8;fill-rule:nonzero}
    .fil1 {fill:url(#id0)}
    .fil2 {fill:url(#id1)}
    .fil4 {fill:url(#id2)}
    .fil3 {fill:url(#id3)}
   ]]>
  </style>
  <linearGradient id="id0" gradientUnits="userSpaceOnUse" x1="453.529" y1="297.889" x2="453.529" y2="769.591">
   <stop offset="0" style="stop-opacity:1; stop-color:#3781B2"/>
   <stop offset="1" style="stop-opacity:1; stop-color:#8CD0BF"/>
  </linearGradient>
  <linearGradient id="id1" gradientUnits="userSpaceOnUse" x1="334.597" y1="414.801" x2="636.111" y2="414.801">
   <stop offset="0" style="stop-opacity:1; stop-color:#58C2AF"/>
   <stop offset="1" style="stop-opacity:1; stop-color:#DDE89C"/>
  </linearGradient>
  <linearGradient id="id2" gradientUnits="userSpaceOnUse" x1="659.449" y1="470.379" x2="659.449" y2="596.879">
   <stop offset="0" style="stop-opacity:1; stop-color:#F58B7D"/>
   <stop offset="1" style="stop-opacity:1; stop-color:#FDC87A"/>
  </linearGradient>
  <linearGradient id="id3" gradientUnits="userSpaceOnUse" x1="485.44" y1="533.846" x2="485.44" y2="770.932">
   <stop offset="0" style="stop-opacity:1; stop-color:#EC4B49"/>
   <stop offset="1" style="stop-opacity:1; stop-color:#8E55A0"/>
  </linearGradient>
 </defs>
 <g id="Camada_x0020_1">
  <metadata id="CorelCorpID_0Corel-Layer"/>
  <g id="_2753973958752">
   <path class="fil0" d="M2305 768c0,52 -42,94 -94,94l-1942 0c-52,0 -94,-42 -94,-94l0 -509c0,-52 42,-94 94,-94l1942 0c52,0 94,42 94,94l0 509z"/>
   <path class="fil1" d="M337 762l0 0 0 0c0,0 0,0 0,0l0 0 0 0c-1,-1 -2,-3 -2,-4l0 0 0 0c0,-1 0,-1 0,-2l0 -1 -1 0c0,0 0,-1 0,-1l0 -220 0 -216c0,-1 0,-1 0,-2l1 0 0 -1c0,-1 0,-2 0,-3l0 0 0 0c0,-1 1,-1 1,-1l0 0 0 0c0,-1 1,-2 1,-3l0 0 0 0c1,0 1,0 1,0l0 0 0 0c0,-1 1,-1 1,-1l1 0 0 0c0,-1 1,-1 2,-2l0 0 0 0 0 0 230 229 -30 30 -50 49 0 0 0 0 -49 49 0 0 0 0 -49 49 -49 49 0 0 0 0 -5 4 0 0c-1,-1 -2,-1 -3,-2z"/>
   <path class="fil2" d="M555 517l0 0 0 0 0 -1 0 0 0 0 -49 -49 0 0 0 0 -1 0 0 0 0 0 -49 -49 0 0 0 0 -49 -49 0 0 0 0 -50 -49 0 0 0 0 -15 -15c1,0 2,0 3,0l0 0 2 0c1,0 1,0 2,0l0 0 0 0c1,1 1,1 2,1l0 0 0 0c1,0 1,0 2,1l0 0 0 0c0,0 0,0 1,0l0 0 0 0c0,0 0,0 1,0l0 1 0 0 0 0 2 1 169 98 1 0 5 3 3 1 2 2 2 1 1 1 96 55 -45 45 -19 19 -17 -17z"/>
   <path class="fil3" d="M344 764l0 0 -2 0c-1,0 -1,0 -2,0l0 0 0 0 232 -230 64 63 -96 55 0 1 -2 0 -3 2 -1 1 -9 5 -4 2 -3 2 0 0 0 0 -70 41 0 0 0 0 -80 46 -8 5 -1 0 -8 5c-1,0 -1,0 -1,0l0 0 0 1c-1,0 -1,0 -1,0l0 0 0 0c-2,1 -4,1 -5,1z"/>
   <path class="fil4" d="M604 565l0 0 0 0 -32 -31 64 -64c0,0 84,49 93,54l1 1c1,0 1,0 1,0l0 0 0 0c1,1 2,1 2,2l0 0 0 0c0,0 1,0 1,0l0 0 0 0c1,1 1,2 2,3l0 0 0 0c0,0 0,1 0,1l0 0 0 0c1,2 1,4 0,6l0 0 0 0c0,0 0,0 -1,0l0 0 0 1c-1,1 -3,3 -5,5l0 0 0 0c0,0 -1,0 -1,1l-8 4 -1 1 -2 1 -2 1 -3 2 0 0 -5 3 0 0 -5 2 -7 5 -2 1 -4 2 -2 1 -7 4 -1 1 -6 3 -3 2 -9 5 -3 2 -4 2 -2 1 -6 4 -3 1 -3 2 -1 1 -1 0 -3 2 0 0 -32 -32z"/>
   <path class="fil5" d="M1830 501c-14,0 -24,4 -31,12 -6,8 -9,20 -9,37l0 5c0,19 3,33 9,41 7,8 17,12 31,12 12,0 22,-4 28,-14 7,-10 10,-23 10,-40 0,-17 -3,-30 -10,-39 -6,-9 -16,-14 -28,-14zm3 125c-9,0 -17,-2 -25,-5 -7,-3 -13,-8 -18,-15l-2 0c1,8 2,15 2,22l0 57 -21 0 0 -199 17 0 3 19 1 0c5,-8 11,-13 18,-16 8,-4 16,-5 25,-5 18,0 32,6 42,18 10,13 15,30 15,53 0,22 -5,40 -15,52 -10,13 -24,19 -42,19z"/>
   <polygon class="fil5" points="1917,623 1938,623 1938,428 1917,428 "/>
   <path class="fil5" d="M2011 609c13,0 23,-4 30,-11 8,-7 11,-17 11,-30l0 -12 -21 1c-16,0 -28,3 -35,7 -8,5 -11,12 -11,22 0,7 2,13 7,17 4,4 10,6 19,6zm47 14l-5 -19 -1 0c-6,8 -13,14 -20,17 -7,3 -15,5 -26,5 -13,0 -24,-4 -32,-11 -7,-7 -11,-17 -11,-30 0,-27 22,-42 66,-43l24 -1 0 -8c0,-11 -3,-19 -7,-24 -5,-5 -12,-8 -22,-8 -12,0 -25,3 -39,10l-7 -15c7,-4 14,-7 23,-9 8,-2 16,-3 24,-3 16,0 28,3 36,11 8,7 12,19 12,35l0 93 -15 0z"/>
   <path class="fil5" d="M2085 486l22 0 30 78c7,18 11,31 13,39l1 0c1,-4 3,-11 7,-22 3,-10 14,-42 34,-95l22 0 -59 156c-6,16 -13,27 -21,33 -7,7 -17,10 -28,10 -7,0 -13,-1 -19,-2l0 -17c4,1 10,2 15,2 14,0 25,-8 31,-24l7 -20 -55 -138z"/>
   <path class="fil5" d="M1436 572c6,-7 7,-16 7,-21 0,-21 -12,-53 -36,-53 -8,0 -16,4 -20,9 -5,6 -7,14 -7,22 0,19 11,51 36,51 7,0 15,-4 20,-8zm-9 54c-2,0 -3,0 -6,0 -3,0 -18,1 -30,5 -7,2 -25,9 -25,29 0,21 20,35 50,35 28,0 43,-13 43,-31 0,-14 -10,-22 -32,-38zm21 -127c6,5 20,17 20,39 0,21 -12,31 -24,40 -4,4 -8,8 -8,14 0,7 4,10 7,13l11 8c12,10 24,20 24,40 0,27 -26,54 -76,54 -41,0 -61,-20 -61,-41 0,-10 5,-25 22,-35 18,-11 42,-12 55,-13 -4,-5 -9,-11 -9,-20 0,-4 1,-7 3,-11 -3,1 -6,1 -9,1 -31,0 -48,-23 -48,-45 0,-13 6,-28 18,-39 17,-13 36,-16 52,-16l59 0 -18 11 -18 0z"/>
   <path class="fil5" d="M1303 599c7,-10 8,-21 8,-32 0,-26 -12,-74 -47,-74 -10,0 -19,4 -26,10 -11,10 -13,23 -13,35 0,28 14,75 49,75 11,0 22,-5 29,-14zm-36 23c-46,0 -70,-36 -70,-68 0,-38 31,-70 74,-70 42,0 69,33 69,68 0,34 -26,70 -73,70z"/>
   <path class="fil5" d="M1147 599c7,-10 9,-21 9,-32 0,-26 -12,-74 -48,-74 -9,0 -18,4 -25,10 -12,10 -14,23 -14,35 0,28 15,75 49,75 11,0 23,-5 29,-14zm-35 23c-46,0 -70,-36 -70,-68 0,-38 30,-70 74,-70 42,0 68,33 68,68 0,34 -26,70 -72,70z"/>
   <path class="fil5" d="M1020 617l-41 10c-17,2 -32,5 -48,5 -80,0 -110,-59 -110,-105 0,-56 43,-107 117,-107 15,0 30,2 44,6 21,6 31,13 38,17l-24 23 -10 3 7 -12c-10,-10 -28,-27 -62,-27 -45,0 -80,34 -80,85 0,54 40,105 102,105 19,0 28,-4 37,-7l0 -46 -43 2 23 -13 61 0 -8 8c-2,1 -2,2 -3,4 0,3 0,11 0,14l0 35z"/>
   <path class="fil5" d="M1539 609c-10,-1 -12,-3 -12,-14l0 -163c0,-1 0,-1 1,-2 1,-10 4,-12 12,-17l-41 0 -21 10 22 0 0 1 0 0 0 177c0,6 -1,7 -8,16l51 0 11 -7c-5,0 -10,-1 -15,-1z"/>
   <path class="fil5" d="M1629 526c6,-2 9,-3 9,-7 0,-12 -13,-25 -29,-25 -11,0 -33,9 -33,40 0,5 1,10 1,15l52 -23zm27 86c-3,1 -6,3 -9,5 -10,4 -19,5 -28,5 -9,0 -24,0 -38,-11 -20,-14 -29,-39 -29,-60 0,-45 36,-67 65,-67 11,0 21,3 30,9 14,9 18,21 20,28l-68 27 -22 2c8,36 32,57 59,57 15,0 26,-5 35,-10l-15 15z"/>
   <polygon class="fil5" points="1684,486 1684,505 1681,505 1681,486 1675,486 1675,484 1690,484 1690,486 "/>
   <polygon class="fil5" points="1710,505 1710,486 1709,486 1704,505 1702,505 1696,486 1696,486 1696,505 1694,505 1694,484 1697,484 1703,501 1703,501 1708,484 1712,484 1712,505 "/>
   <path class="fil6" d="M858 338c-5,-15 -8,-24 -8,-25l-1 0c0,1 -2,10 -8,25l17 0zm20 25l-14 0c0,-2 -1,-7 -4,-16l-21 0c-2,9 -4,14 -4,16l-13 0c0,-1 3,-10 10,-28 7,-18 11,-28 11,-30l17 0c0,2 3,12 9,29 6,18 9,28 9,29z"/>
   <path class="fil6" d="M936 363l-11 0c0,-1 -4,-7 -12,-19 -9,-12 -14,-21 -15,-25l-1 0c1,6 2,12 2,17 0,8 0,17 0,27l-11 0c1,-9 1,-19 1,-30 0,-11 0,-20 -1,-28l13 0c0,2 4,8 11,19 8,12 13,20 14,24l1 0c-1,-7 -1,-13 -1,-18 0,-8 -1,-16 -1,-25l11 0c0,8 0,17 0,28 0,11 0,21 0,30z"/>
   <path class="fil6" d="M989 334c0,-6 -2,-10 -5,-14 -4,-4 -9,-6 -16,-6 -1,0 -3,0 -5,0 0,6 1,12 1,19 0,7 0,14 0,21 2,1 4,1 6,1 6,0 11,-2 14,-6 3,-4 5,-9 5,-15zm12 -2c0,9 -3,16 -8,22 -6,7 -13,10 -23,10 -4,0 -10,0 -18,-1 0,-9 0,-19 0,-30 0,-11 0,-20 0,-28l8 0c1,0 3,0 5,0 3,0 5,0 5,0 11,0 19,3 24,8 5,5 7,12 7,19z"/>
   <path class="fil6" d="M1044 322c0,-6 -4,-9 -11,-9 -3,0 -6,1 -8,1 0,5 1,11 1,18 1,0 3,0 4,0 9,0 14,-3 14,-10zm17 41l-13 0c-4,-10 -7,-17 -8,-19 -2,-3 -5,-4 -9,-4 -2,0 -4,0 -5,0 0,8 0,16 0,23l-12 0c0,-9 0,-19 0,-30 0,-11 0,-20 0,-28l7 0c1,0 3,0 6,0 3,0 5,0 8,0 14,0 20,5 20,14 0,7 -3,13 -11,15l0 1c3,1 5,3 8,7 2,4 5,11 9,21z"/>
   <path class="fil6" d="M1113 334c0,-6 -2,-11 -5,-15 -3,-4 -7,-6 -12,-6 -4,0 -8,2 -11,6 -3,4 -5,9 -5,15 0,6 2,11 5,15 3,4 7,6 12,6 4,0 8,-2 11,-6 3,-4 5,-9 5,-15zm12 -1c0,9 -3,17 -8,23 -6,6 -13,9 -21,9 -8,0 -15,-3 -20,-8 -5,-6 -8,-13 -8,-21 0,-10 3,-17 8,-23 6,-6 13,-9 21,-9 8,0 15,3 20,8 5,6 8,13 8,21z"/>
   <path class="fil6" d="M1150 363l-12 0c0,-9 0,-19 0,-30 0,-11 0,-20 0,-28l12 0c0,8 0,17 0,28 0,11 0,21 0,30z"/>
   <path class="fil6" d="M1203 334c0,-6 -2,-10 -5,-14 -3,-4 -9,-6 -15,-6 -2,0 -3,0 -6,0 1,6 1,12 1,19 0,7 0,14 0,21 2,1 4,1 6,1 6,0 11,-2 14,-6 3,-4 5,-9 5,-15zm12 -2c0,9 -3,16 -8,22 -5,7 -13,10 -23,10 -4,0 -10,0 -18,-1 0,-9 1,-19 1,-30 0,-11 -1,-20 -1,-28l8 0c1,0 3,0 5,0 3,0 5,0 5,0 11,0 19,3 24,8 5,5 7,12 7,19z"/>
   <path class="fil6" d="M1281 338c-6,-15 -8,-24 -8,-25l-1 0c0,1 -2,10 -8,25l17 0zm20 25l-14 0c0,-2 -1,-7 -4,-16l-21 0c-3,9 -4,14 -4,16l-14 0c0,-1 4,-10 11,-28 7,-18 10,-28 10,-30l17 0c0,2 3,12 10,29 6,18 9,28 9,29z"/>
   <path class="fil6" d="M1342 323c0,-7 -4,-10 -13,-10 -2,0 -4,0 -7,1 1,6 1,12 1,19 1,0 2,0 3,0 10,0 16,-3 16,-10zm11 -3c0,8 -2,13 -8,16 -5,4 -11,5 -19,5 -1,0 -2,0 -3,0 0,6 0,13 0,22l-12 0c0,-8 0,-18 0,-30 0,-11 0,-20 0,-28l8 0c1,0 3,0 6,0 3,0 6,0 8,0 6,0 11,1 15,4 3,2 5,6 5,11z"/>
   <path class="fil6" d="M1396 323c0,-7 -5,-10 -13,-10 -2,0 -5,0 -7,1 0,6 1,12 1,19 0,0 1,0 2,0 11,0 17,-3 17,-10zm11 -3c0,8 -3,13 -8,16 -5,4 -12,5 -19,5 -2,0 -3,0 -3,0 0,6 0,13 0,22l-12 0c0,-8 0,-18 0,-30 0,-11 0,-20 0,-28l7 0c1,0 4,0 7,0 3,0 6,0 8,0 6,0 10,1 14,4 4,2 6,6 6,11z"/>
   <path class="fil6" d="M1482 334c0,-6 -1,-11 -4,-15 -3,-4 -7,-6 -12,-6 -4,0 -8,2 -11,6 -3,4 -5,9 -5,15 0,6 2,11 5,15 3,4 7,6 12,6 4,0 8,-2 11,-6 3,-4 4,-9 4,-15zm13 -1c0,9 -3,17 -9,23 -5,6 -12,9 -20,9 -8,0 -15,-3 -20,-8 -5,-6 -8,-13 -8,-21 0,-10 3,-17 8,-23 6,-6 13,-9 21,-9 8,0 15,3 20,8 5,6 8,13 8,21z"/>
   <path class="fil6" d="M1555 363l-11 0c0,-1 -4,-7 -12,-19 -8,-12 -13,-21 -15,-25l0 0c0,6 1,12 1,17 0,8 0,17 0,27l-11 0c1,-9 1,-19 1,-30 0,-11 0,-20 -1,-28l14 0c0,2 3,8 11,19 8,12 12,20 13,24l1 0c-1,-7 -1,-13 -1,-18 0,-8 0,-16 -1,-25l11 0c0,8 0,17 0,28 0,11 0,21 0,30z"/>
  </g>
 </g>
</svg>
