<?xml version="1.0" encoding="UTF-8"?>
<!DOCTYPE svg PUBLIC "-//W3C//DTD SVG 1.1//EN" "http://www.w3.org/Graphics/SVG/1.1/DTD/svg11.dtd">
<!-- Creator: CorelDRAW X8 -->
<svg xmlns="http://www.w3.org/2000/svg" xml:space="preserve" width="2480px" height="3508px" version="1.1" style="shape-rendering:geometricPrecision; text-rendering:geometricPrecision; image-rendering:optimizeQuality; fill-rule:evenodd; clip-rule:evenodd"
viewBox="0 0 2480 3507"
 xmlns:xlink="http://www.w3.org/1999/xlink">
 <defs>
  <style type="text/css">
   <![CDATA[
    .str0 {stroke:black;stroke-width:69.9903;stroke-linecap:round;stroke-linejoin:round}
    .fil0 {fill:none}
   ]]>
  </style>
 </defs>
 <g id="Camada_x0020_1">
  <metadata id="CorelCorpID_0Corel-Layer"/>
  <path class="fil0 str0" d="M306 963c9,-94 34,-184 78,-272 75,-159 194,-278 350,-359 128,-62 262,-91 403,-100 9,0 16,-3 25,-3 53,0 103,0 156,0 59,9 122,12 181,25 166,31 316,97 438,212 128,125 203,278 231,457 9,56 13,115 13,175 0,190 0,384 0,574"/>
  <path class="fil0 str0" d="M2181 1822c0,7 0,-3 0,0"/>
  <path class="fil0 str0" d="M2181 1976c0,150 0,300 0,450 0,137 -22,268 -82,393 -78,160 -193,278 -353,356 -181,88 -375,110 -572,104 -153,-7 -300,-35 -434,-100 -187,-94 -316,-238 -387,-432 -41,-106 -54,-215 -54,-328 0,-425 0,-850 0,-1271"/>
 </g>
</svg>
