<?xml version="1.0" encoding="UTF-8"?>
<!DOCTYPE svg PUBLIC "-//W3C//DTD SVG 1.1//EN" "http://www.w3.org/Graphics/SVG/1.1/DTD/svg11.dtd">
<!-- Creator: CorelDRAW X8 -->
<svg xmlns="http://www.w3.org/2000/svg" xml:space="preserve" width="1.56986E+06px" height="395111px" version="1.1" style="shape-rendering:geometricPrecision; text-rendering:geometricPrecision; image-rendering:optimizeQuality; fill-rule:evenodd; clip-rule:evenodd"
viewBox="0 0 1569861 393787"
 xmlns:xlink="http://www.w3.org/1999/xlink">
 <defs>
  <style type="text/css">
   <![CDATA[
    .fil2 {fill:#414042}
    .fil0 {fill:#EE3124}
    .fil1 {fill:white}
   ]]>
  </style>
 </defs>
 <g id="Camada_x0020_1">
  <metadata id="CorelCorpID_0Corel-Layer"/>
  <g id="_2231125359808">
   <g>
    <path class="fil0" d="M491359 78765c-7576,-22728 -22728,-37879 -45456,-45456 -37880,-11365 -193190,-11365 -193190,-11365 0,0 -155308,0 -196976,11365 -18940,7577 -37880,22728 -41668,45456 -11365,37880 -11365,117429 -11365,117429 0,0 0,83336 11365,121217 3788,22728 22728,37880 41668,45456 41668,7577 196976,7577 196976,7577 0,0 155309,0 193190,-7577 22728,-7576 37880,-22728 45456,-45456 11365,-37880 11365,-121217 11365,-121217 0,0 0,-79549 -11365,-117429z"/>
    <polygon class="fil1" points="203470,271955 332262,196194 203470,124221 "/>
   </g>
   <g>
    <path class="fil2" d="M726217 340139c-7577,-7576 -15152,-15151 -18940,-30304 -3788,-15152 -7577,-34093 -7577,-56821l0 -30305c0,-22728 3789,-41668 7577,-56821 3788,-15152 11365,-26517 22728,-30305 7577,-7576 22728,-11364 37880,-11364 15152,0 30304,3788 41668,11364 7576,3788 15152,15152 18940,30305 3788,15151 7576,34093 7576,56821l0 30305c0,22728 -3788,41667 -7576,56821 -3788,15151 -11365,22728 -18940,30304 -11365,7577 -26516,11365 -41668,11365 -18940,0 -30305,-3788 -41668,-11365zm56820 -34093c3787,-7576 3787,-18940 3787,-34093l0 -68184c0,-15152 0,-26516 -3787,-34093 -3789,-7576 -7577,-11365 -15152,-11365 -7576,0 -11365,3789 -15152,11365 0,7577 -3788,18940 -3788,34093l0 68184c0,15152 3788,26517 3788,34093 3788,7577 7577,11365 15152,11365 7576,0 11364,-3788 15152,-11365z"/>
    <path class="fil2" d="M1483820 253015l0 11365c0,15151 0,26516 0,34093 3788,3788 3788,11365 7576,15151 3788,0 7577,3789 11365,3789 7576,0 11365,-3789 15151,-7577 3789,-7576 3789,-15151 3789,-30305l41668 3789c3788,0 3788,3788 3788,7576 0,18940 -7577,34093 -18940,45457 -11365,7576 -26516,11364 -45456,11364 -26516,0 -41668,-7576 -53033,-22728 -7576,-15151 -11365,-37880 -11365,-68184l0 -37880c0,-34093 3789,-56821 15152,-71973 7576,-15151 26516,-22728 49244,-22728 18940,0 30305,3788 41668,7577 7577,7576 15152,18939 15152,30304 3788,11365 7576,30305 7576,53033l0 37880 -83335 0 0 0 0 -3zm7576 -90912c-3788,3788 -3788,7576 -7576,15151 0,7577 0,18940 0,30305l0 18940 37879 0 0 -18940c0,-11365 0,-22728 -3788,-30305 0,-7576 0,-11365 -3788,-15151 -3789,-3789 -7577,-3789 -11365,-3789 -7576,0 -11365,0 -11365,3789l3 0z"/>
    <path class="fil2" d="M608788 249227l-56821 -200765 49244 0 18940 90913c3788,22728 7577,41668 11365,56821l0 0c3788,-11365 7577,-30305 11365,-56821l22728 -90913 45456 0 -56821 200765 0 98489 -45456 0 0 -98489 0 0z"/>
    <path class="fil2" d="M995166 128010l0 219704 -37880 0 -3788 -26516 -3788 0c-7577,18940 -26516,30304 -45456,30304 -15152,0 -26517,-3788 -34093,-15151 -7577,-7577 -7577,-22728 -7577,-45456l0 -162885 49245 0 0 159096c0,11365 0,18940 0,22729 3788,3788 7576,7576 11365,7576 3788,0 7576,-3788 15151,-3788 3788,-3788 3788,-7577 7577,-11365l0 -174248 49244 0z"/>
    <path class="fil2" d="M1245175 128010l0 219704 -37879 0 -3789 -26516 0 0c-11365,18940 -26516,30304 -49244,30304 -11365,0 -22728,-3788 -30305,-15151 -7576,-7577 -11365,-22728 -11365,-45456l0 -162885 49245 0 0 159096c0,11365 3788,18940 3788,22729 3788,3788 7577,7576 11365,7576 3788,0 7577,-3788 11365,-3788 3788,-3788 7576,-7577 7576,-11365l0 -174248 49245 0 -2 0z"/>
    <polygon class="fil2" points="1127746,86342 1078502,86342 1078502,347714 1033046,347714 1033046,86342 983801,86342 983801,48462 1127746,48462 "/>
    <path class="fil2" d="M1411847 162103c-3788,-11365 -11365,-22728 -15152,-30305 -7576,-3788 -18939,-7577 -30304,-7577 -7577,0 -15152,3789 -22728,7577 -7577,3788 -15152,11365 -18940,18940l0 0 0 -113641 -49245 0 0 310617 41668 0 3789 -22728 3788 0c3788,7577 7576,15152 15151,18940 7577,3788 15152,7576 26517,7576 15151,0 26516,-7576 37879,-22728 7577,-15151 11365,-41668 11365,-71972l0 -34093c0,-26517 -3788,-45456 -3788,-60608l0 2zm-45456 90912c0,15152 -3789,26516 -3789,37880 0,7576 -3788,15151 -7576,18940 -3788,3788 -7577,3788 -11365,3788 -3788,0 -7577,0 -11365,0 -3788,-3788 -3788,-7577 -7576,-11365l0 -121217c0,-7577 3788,-11365 7576,-15152 3788,-3788 11365,-7576 15152,-7576 3789,0 7577,3788 11365,7576 3788,3789 3788,7577 3788,18940 3788,7577 3788,22728 3788,37880l0 30305 0 0 2 1z"/>
   </g>
  </g>
 </g>
</svg>
